<?xml version="1.0" encoding="utf-8"?>
<!-- Generator: Adobe Illustrator 21.1.0, SVG Export Plug-In . SVG Version: 6.00 Build 0)  -->
<svg version="1.1" id="Calque_1" xmlns="http://www.w3.org/2000/svg" xmlns:xlink="http://www.w3.org/1999/xlink" x="0px" y="0px"
	 viewBox="0 0 432 432" style="enable-background:new 0 0 432 432;" xml:space="preserve">
<style type="text/css">
	.st0{fill:#99827A;}
	.st1{fill:#6C7786;}
	.st2{fill:#462D1A;}
	.st3{fill:#81B7BA;}
	.st4{fill:#7BBDAA;}
	.st5{fill:#F7A592;}
	.st6{fill:#516E76;}
	.st7{fill:#685850;}
	.st8{fill:#A67D50;}
	.st9{fill:#8EA184;}
	.st10{fill:#AA8D86;}
	.st11{fill:#716558;}
	.st12{fill:#F06666;}
	.st13{fill:#2D556B;}
	.st14{fill:#634E42;}
	.st15{fill:#463F1C;}
	.st16{fill:#534741;}
	.st17{fill:#998675;}
	.st18{fill:#B99875;}
	.st19{fill:#AE9C96;}
	.st20{fill:#F9B8A9;}
	.st21{fill:#9BC6C8;}
	.st22{fill:#AFBDC4;}
	.st23{fill:#BDCCD4;}
	.st24{fill:#221F20;}
	.st25{fill:#BE6F77;}
</style>
<path class="st5" d="M332.1,157.4c-0.3-2.4-0.9-4.9-1.8-7.2c-3.2-9.1-9.8-16.6-17.9-21.7c2.9-0.8,5.8-0.8,8.7,0.1
	c1.2,0.4,2.3,1.2,3.5,1.5c0.5,0.1,0.9,0.2,1.3-0.2c1-1-0.9-2.9-1.4-3.6c-1.4-1.8-3.1-3.4-4.9-4.7c-7.9-5.7-18.5-7-27.9-5.3
	c0.8-0.7,1.7-1.3,2.6-1.9c1-0.6,2.6-1.2,3.3-2.1c0.6-0.7,0.6-1.6-0.3-2.1c-1.2-0.7-3.4-0.3-4.8-0.3c-2.7,0.1-5.3,0.5-7.9,1.1
	c-9.7,2.3-18.9,7.5-27.2,12.9c-4.6,3-9.1,6.5-12.4,11c-0.6,0.8-1.2,1.7-1.7,2.5c-0.9,1.4-1.4,3.4-2.7,4.4c-1,0.8-2.2,1.4-3.2,2.2
	c-0.5,0.4-1.6,0.9-1.5,1.7c0,0.6,0.7,1.3,1.3,1.4c0.4,0.1,0.6-0.1,0.9-0.2c1.7-0.8,2.8-2.5,4.6-3.2c4-1.4,8.5,0.1,12,2.2
	c3.4,2,6.5,4.6,9.7,6.9c1,0.7,6.5,5.2,7.2,2.7c0.4-1.4-1.4-4.3-2.1-5.5c-0.6-1.1-1.3-2.2-2-3.3c-0.1-0.2-0.9-1.2-0.9-1.2
	c0.2-0.4,2.1,0.3,2.5,0.4c5.6,1.4,10.9,3.9,15.9,6.8c2.3,1.3,4.6,2.8,6.9,4.2c1.1,0.7,2.1,1.3,3.2,2c1.1,0.7,2.6,2,3.9,2.3
	c3.6,0.9-0.2-6.6-0.9-7.7c-0.5-0.8-1-1.7-1.5-2.5c-0.4-0.6-0.9-1.1-1.2-1.7c-0.4-0.8-0.5-0.6,0.5-0.3c2.4,0.7,4.9,1.3,7.4,1.8
	c6,1.2,11.2,2.8,16.4,6.1c2.5,1.6,5,3.3,7.5,4.9c1,0.6,3.7,3.2,4.9,2.1C333.2,163,332.3,158.7,332.1,157.4z M329.6,160.7
	c-0.3,0.1-2-1.3-2.2-1.4c-0.6-0.4-1.2-0.8-1.9-1.3c-1.5-1-2.9-2-4.4-2.9c-5.4-3.4-10.8-5.5-17.1-6.6c-3.2-0.6-6.5-1.2-9.6-2.4
	c-0.8-0.3-3.8-2.2-3.8,0c0,0.7,0.8,1.6,1.2,2.1c0.9,1.4,1.9,2.8,2.8,4.2c0.2,0.3,3.1,4.9,2.7,5.2c-0.4,0.3-3.2-1.8-3.8-2.1
	c-5.3-3.3-10.6-6.6-16.4-9.1c-1.7-0.7-14.1-5.7-14.6-2.8c-0.1,0.8,0.7,1.5,1.1,2.1c1.4,1.8,2.7,3.7,3.7,5.7c0.2,0.3,0.4,0.7,0.5,1
	c0.1,0.6,0.4,0.4-0.1,0.4c-0.6,0-1.5-1-2.1-1.3c-1.4-1-2.8-2-4.3-3.1c-4.2-3.1-8.6-6.4-13.9-7.2c9.3-4,19.5-5.4,29.6-5.7
	c5.5-0.2,11.1,0,16.6,0.6c5.5,0.7,11.4,1.6,16.5,4.1c1.7,0.8,3.2,1.9,4.5,3.2c0.3,0.3,0.6,0.8,1.1,0.9c0.9,0.3,1.5-0.4,1.4-1.3
	c-0.1-1-1.8-2.1-2.6-2.7c-1.8-1.4-3.8-2.4-5.9-3.3c-9.5-3.8-20.6-4.3-30.7-4.1c-11.3,0.3-22.8,1.8-33.1,6.6
	c5.1-8.6,14.2-13.9,22.6-18.6c7.7-4.2,15.8-7.8,24.6-8.4c-2.5,1.6-7.1,4.8-5.2,6.8c0.7,0.7,1.5,0.3,2.4,0.1c2.1-0.6,4.2-0.9,6.3-1.1
	c9.1-0.9,19.2,1.3,25.6,8c-4.2-1.2-8.6-1.2-12.6,0.8c0,0,0,0,0,0c0,0,0,0,0,0c-1.2,1.2,0.2,2.1,1.2,2.6c2.7,1.5,5.3,3.4,7.6,5.5
	c4.9,4.5,8.8,10.3,10.7,16.6C328.8,153,330.9,160.3,329.6,160.7z"/>
<path class="st11" d="M169.5,316c-1.2-0.6-1.9-0.8-1.8-2.1c0-0.5,0.2-1,0.2-1.6c0.1-1.8-0.3-3.5-0.9-5.2c-2.3-7-6.9-13.5-11.4-19.3
	c-5.2-6.7-10.9-13.1-16.8-19.2c-5.8-5.8-11.9-12-18.7-16.6c-1.6-1.1-3.3-2.1-5.1-2.7c-0.7-0.3-1.5-0.7-2.3-0.4
	c-1.1,0.5-0.8,1.6-0.6,2.5c0.5,2.2,1.3,4.4,2,6.5c-6.3-3.9-12.8-7.6-19.2-11.4c-1.6-1-3.3-1.9-4.9-2.9c-0.9-0.6-1.8-1.1-2.8-1.7
	c-0.6-0.4-1.4-1.1-2.1-1.3c-1-0.3-2.1,0-2.1,1.2c1.6,6.9,4.4,13.3,8.6,19c4.3,5.9,9.8,10.8,14.9,16c-1.8-0.1-3.5-0.2-5.3-0.5
	c-1.1-0.2-2.5-1.1-3.6-0.8c-2.5,0.7,0.7,4.3,1.4,5.3c4.2,6.5,9.5,12.2,15.4,17.2c10.5,8.9,23.4,16.7,37.3,18.8
	c3.4,0.5,6.9,0.7,10.4,0.3c0.7-0.1,1.5-0.2,2.2-0.3c1.2-0.1,1.9,0.2,3,0.7c0.8,0.4,1.9,1.2,2.9,1.1c0.5-0.1,1.1-0.4,1.3-0.9
	C171.9,316.7,170.2,316.3,169.5,316z M91.3,254.7c-2-3.3-3.6-6.8-4.7-10.5c3.8,2.4,7.6,4.6,11.4,6.9c1,1.6,1.9,3.6,0.5,5.3
	c-1.5,1.9-4.3,2.2-5.9,0.5C92.1,256.3,91.7,255.4,91.3,254.7z M125.9,282.1c-4.4-5-8.5-10.1-13.1-15c-0.9-0.9-2.2-3.1-3.7-2.5
	c-1.9,0.8,0,2.3,0.8,3.2c4.6,4.8,8.8,9.9,13.1,14.9c0.6,0.7,1.5,1.4,1.8,2.3c0.2,0.6,0.1,1.4,0.2,2c0.2,1.8,0.3,3.6,0.4,5.5
	c0.2,3.5,0.3,7.1,0.1,10.6c-9.7-6.6-18.4-14.7-24.8-24.6c1.3,0.2,2.5,0.4,3.8,0.5c1.5,0.1,3.4,0.4,4.9,0.2c1.7-0.2,1.5-1.4,0.6-2.5
	c-4.8-5.7-10.4-10.6-15-16.5c3.8-0.5,7.2-2.8,6.6-6.9c4.7,2.7,9.4,5.5,13.9,8.4c0,0,0,0,0.1,0c0,0,0,0,0,0c0.8,0.3,1.8,0.1,2-0.8
	c0.3-1.1-0.9-3.3-1.3-4.3c-0.6-1.6-1.1-3.2-1.5-4.8c6,2.8,11,8,15.8,12.5c5.5,5.1,10.6,10.5,15.5,16.1c-3.2,0.6-6.4,1.3-9.7,1.9
	c-1.6,0.3-3.3,0.6-4.9,0.9c-0.9,0.1-1.9,0.4-2.8,0.4C127.3,283.7,126.8,283.2,125.9,282.1z M134.3,308.3c-2.1-1.1-4.2-2.3-6.2-3.6
	c0.3-1,0.2-2.2,0.2-3.1c0.1-1.7,0.1-3.4,0-5.1c-0.1-2.9-0.3-5.7-0.5-8.6c1.1,1.2,2.3,2.3,3.4,3.5c1.5,1.6,1.7,3.5,2.2,5.6
	C134.1,300.8,134.6,304.5,134.3,308.3z M133.7,290.5c-0.7-0.4-1.4-1.3-1.9-1.9c-0.9-0.9-1.7-1.8-2.6-2.8c4.3-0.6,8.6-1.4,12.9-2.3
	c1.1-0.2,2.2-0.4,3.3-0.6c1.6-0.3,2.3-0.5,3.5,0.7c1.6,1.7,3.1,3.7,4.5,5.6c-3.7,0.3-7.4,0.7-11,1c-2,0.2-3.9,0.3-5.9,0.5
	C135.5,290.7,134.6,290.9,133.7,290.5z M136.8,309.6c0.6-4.6-0.1-9.2-1.1-13.7c8,7.3,16.8,13.8,26.4,19
	C153.3,315.7,144.7,313.3,136.8,309.6z M165,313.8c-10.6-5.6-20.1-12.7-28.8-20.9c3.8-0.3,7.7-0.7,11.5-1c1.1-0.1,2.2-0.2,3.3-0.3
	c0.9-0.1,2.4-0.5,3.3-0.3c1.7,0.4,3.1,3.5,4,4.9C161.4,300.9,166.5,307.7,165,313.8z"/>
<g>
	<g>
		<path class="st11" d="M183.8,193.4c0.1-0.3,0.5-0.7,0.7-1l0.9-1.3l0.8-1.2l0.7-1.2c0.5-0.8,0.9-1.6,1.3-2.4l1.2-2.4
			c0.4-0.8,0.7-1.6,1.1-2.4c0.2-0.4,0.4-0.8,0.5-1.2l0.5-1.2c-0.5,0.2-1,0.5-1.5,0.7c-0.5,0.2-1,0.4-1.6,0.5c-0.5,0.1-1,0.3-1.3-0.3
			c-0.2-0.3-0.1-0.8,0-1.1c0.1-0.4,0.2-0.9,0.4-1.3c0.1-0.4,0.3-0.8,0.5-1.2c1.5-3.3,3.5-6.5,5.1-9.6c1.7-3.3,3.3-6.6,4.9-9.9
			c0.7-1.4,1.4-3,2.2-4.4c0.7-1.5,1.7-3,2.7-4.3c0.5-0.6,1.1-1.3,1.9-1.7c0.2-0.1,0.5-0.2,0.7-0.4c0.5-0.4,0.4-0.7,0.2-1.3
			c-0.1-0.4-0.5-1.1,0.1-1.3c0.3-0.1,0.6,0,0.8,0.2c0.4,0.3,0.4,1,0.5,1.4c0.1,0.6,0.3,0.9,0.7,1.4c0.3,0.3,0.6,0.5,0.8,0.8
			c1.2,1.2,2.2,2.7,3,4.3c0.4,0.8,0.7,1.7,1,2.5c0.3,0.9,0.6,1.8,0.7,2.7c0.2,0.9,0.3,1.9,0.4,2.8c0.1,1,0.1,1.9,0.1,2.9
			c0,2-0.3,3.9-0.7,5.9c-0.5,1.9-1,3.8-1.7,5.6c-0.8,2-1.8,4-3,5.8c-0.6,0.9-1.3,1.8-1.9,2.7c-0.7,0.9-1.4,1.6-2.2,2.4
			c-0.5,0.5-2.2,2.6-2.7,1.3c-0.2-0.5,0.1-1.4,0.2-2c0-1-0.1-1.9-0.2-2.8c-0.6,0.8-1.1,1.6-1.7,2.4c-0.6,0.8-1.2,1.6-1.8,2.3
			c-0.6,0.8-1.3,1.5-1.9,2.2c-0.7,0.7-1.4,1.4-2.1,2c-1.4,1.2-3.1,2.1-4.7,2.9c-0.8,0.4-1.7,0.6-2.6,0.9c-0.4,0.1-0.9,0.2-1.3,0.3
			c-0.4,0.1-0.9,0.2-1.3,0.2C183.7,194.5,183.6,193.9,183.8,193.4z M190.2,185.3c1-0.2,1.9,0.1,2.5,0.7c0.6,0.6,1.1,1.5,1.2,2.5
			c2.9-2.6,5.1-5.9,7.5-8.9c0.4-0.6,1-0.9,1.3,0c0.3,0.8,0.3,1.7,0.3,2.6c0.1,0.7,0.1,1.4,0.1,2.1c4.7-4.5,7.8-10.6,9-17
			c-1.7,0.7-3.5,1.5-5.1,2.3c-0.9,0.4-1.7,0.8-2.6,1.2c-0.3,0.1-0.7,0.2-0.9,0.4c-0.4,0.3-0.6,0.8-0.8,1.2l-1.4,2.1
			c-0.5,0.7-1,1.4-1.5,2.1c-0.9,1.4-2,2.7-3,4.1c-0.3,0.5-1,1.5-1.5,0.6c-0.4-0.7,0.6-1.5,0.9-2c0.5-0.7,1-1.3,1.5-2l1.4-2l0.7-1
			l0.7-1c0.4-0.7,0.9-1.4,1.3-2.1c0.3-0.6,0.5-0.9,0.2-1.6c-0.2-0.4-0.5-0.9-0.7-1.3c-0.4-0.7-0.8-1.4-1.3-2.1
			c-0.9-1.4-1.9-2.7-2.9-4c-0.4,0.7-0.8,1.5-1.1,2.2c-0.4,0.7-0.8,1.5-1.1,2.2c-0.4,0.7-0.8,1.5-1.2,2.2c-0.4,0.7-0.7,1.5-1.2,2.2
			c-0.4,0.6-0.7,1.3-1.1,1.9c-0.4,0.6-0.8,1.3-1.1,2c-0.3,0.7-0.7,1.3-1,2c-0.3,0.7-0.6,1.4-0.8,2.1c0.8-0.2,1.4-0.6,2.2-0.9
			c0.5-0.2,1.4-0.9,2-0.8c0.5,0.1,0.7,0.5,0.6,0.9l0,0c0,0,0,0,0,0c-0.5,1.2-1,2.4-1.5,3.6l-0.8,1.8l-0.4,0.9L190.2,185.3z
			 M212.8,161.6c-0.9,0.4-1.8,0.9-2.6,1.4c-0.8,0.5-1.7,1.1-2.4,1.7c-0.9,0.7-1.7,1.1-2.2,2.1c-0.4,0.7-0.7,1.5-1.1,2.2
			c0.7-0.3,1.3-0.6,2-0.9c0.7-0.3,1.3-0.6,2-1c0.8-0.4,1.6-0.7,2.4-1.1c0.5-0.2,1-0.5,1.5-0.6c0.1-0.7,0.2-1.3,0.2-1.9
			C212.7,162.9,212.7,162.3,212.8,161.6z M199.5,157.5c-0.2,0.5-0.5,1-0.7,1.4c-0.3,0.5-0.5,0.9-0.7,1.4c-0.3,0.7,0,1,0.5,1.6l1,1.3
			c0.6,0.9,1.3,1.8,1.9,2.7c0.3,0.5,0.6,0.9,0.9,1.4c0.3,0.5,0.5,0.9,0.8,1.4l0.4-0.8l0.4-0.9c0.2-0.4,0.5-0.9,0.5-1.2
			c0.1-0.5-0.2-0.9-0.5-1.3c-0.5-0.9-1-1.7-1.5-2.6c-0.5-0.8-1-1.6-1.5-2.3C200.5,159,200,158.2,199.5,157.5z M206.6,147
			c-1.5,0.6-2.5,1.8-3.3,3.1c-0.9,1.3-1.4,2.8-2.1,3.9c-0.4,0.7-1.3,1.9-1.1,2.6c0.1,0.4,0.7,0.9,1,1.3l1,1.3
			c1.1,1.6,2.1,3.2,3.1,4.9C207.1,158.6,207.7,152.6,206.6,147z M208,147.8c0.9,5.3,0.4,10.8-1.3,16.1c0.5-0.3,1-0.7,1.4-1l1.5-1
			c1-0.6,2-1.2,3.2-1.7C212.5,155.4,211.1,151,208,147.8z M185.7,192.9c0.9-0.2,1.9-0.5,2.8-0.9c0.9-0.4,1.8-0.9,2.6-1.4
			c0.4-0.2,0.8-0.5,1.1-0.8c0.8-0.8,0.6-2.3-0.4-3c-0.9-0.6-1.9-0.2-2.7,0.4C188.2,189.1,187,191.1,185.7,192.9z"/>
	</g>
	<g>
		<path class="st11" d="M121.6,208.1c0.3-0.1,0.9,0,1.2,0l1.6-0.1c0.9-0.1,1.9-0.2,2.8-0.3l2.7-0.4c0.9-0.2,1.8-0.4,2.7-0.6l1.3-0.3
			l1.3-0.4c0.9-0.2,1.7-0.4,2.6-0.7c-1-0.5-2-1-2.8-1.6c-0.4-0.3-0.8-0.6-0.6-1.1c0.1-0.4,0.6-0.5,0.9-0.7c0.8-0.4,1.6-0.7,2.5-0.9
			c3.6-0.9,7.3-1.3,10.8-2c3.6-0.7,7.2-1.5,10.8-2.3c3.1-0.7,6.5-1.6,9.9-1.6c0.8,0,1.7,0,2.5,0.3c0.2,0.1,0.5,0.2,0.7,0.3
			c0.6,0.2,0.8-0.1,1.2-0.6c0.2-0.3,0.5-1.1,1-0.7c0.2,0.1,0.3,0.5,0.3,0.7c0,0.5-0.5,0.9-0.8,1.3c-0.3,0.5-0.6,0.8-0.6,1.4
			c0,0.4-0.1,0.7-0.1,1.1c-0.1,0.9-0.3,1.7-0.5,2.6c-0.3,0.8-0.6,1.7-1,2.5c-1.5,3.3-4.1,6.2-7.2,8.5c-3.1,2.3-6.8,4.1-10.5,5.3
			c-4.2,1.3-8.7,1.7-13,1.2c-0.7-0.1-3.4-0.1-2.7-1.3c0.3-0.5,1.2-0.8,1.6-1.1c0.8-0.5,1.4-1.2,2.1-1.9c-1,0.1-1.9,0.1-2.9,0.2
			c-1,0-2,0.1-2.9,0.1c-1,0-2-0.1-2.9-0.1c-1-0.1-1.9-0.3-2.9-0.4c-0.5-0.1-0.9-0.2-1.4-0.3c-0.4-0.1-0.9-0.3-1.3-0.4
			c-0.9-0.3-1.7-0.7-2.5-1.1c-0.8-0.4-1.6-0.9-2.3-1.4c-0.4-0.3-0.7-0.5-1.1-0.8c-0.3-0.3-0.7-0.6-1-0.9
			C120.8,208.7,121.1,208.2,121.6,208.1z M132,208c1.5,1.4,1.1,3.4-0.2,4.9c0.5,0.1,1,0.2,1.4,0.2c0.5,0.1,1,0.1,1.5,0.1
			c1,0,1.9,0.1,2.9,0.1c1.9-0.1,3.9-0.1,5.8-0.2c0.7,0,1.3,0.3,0.8,1c-0.4,0.7-1.2,1.3-1.8,1.9c-0.5,0.5-1,0.9-1.6,1.3
			c6.4,1,13.2-0.5,18.9-3.5c-0.8-0.5-1.7-0.9-2.5-1.3c-0.8-0.4-1.7-0.9-2.5-1.3c-0.9-0.4-1.7-0.8-2.5-1.3c-0.3-0.1-0.6-0.4-0.9-0.5
			c-0.5-0.1-1,0-1.5,0.1c-0.4,0.1-0.8,0.1-1.3,0.2l-1.3,0.1l-2.5,0.2c-0.8,0-1.7,0-2.5,0.1l-1.3,0.1l-1.3,0c-0.6,0-1.8,0.2-1.4-0.8
			c0.3-0.8,1.5-0.5,2.2-0.5c0.4,0,0.8,0,1.2,0l1.2-0.1c0.8,0,1.6,0,2.5-0.1l2.5-0.2c0.4,0,0.8-0.1,1.2-0.1l1.2-0.2
			c0.7-0.1,1-0.1,1.4-0.8c0.2-0.4,0.4-0.9,0.6-1.3c0.3-0.8,0.6-1.6,0.8-2.4c0.5-1.6,0.9-3.1,1.3-4.7c-0.8,0.2-1.6,0.3-2.4,0.5
			c-0.8,0.2-1.6,0.4-2.4,0.5c-0.8,0.1-1.6,0.3-2.4,0.5c-0.8,0.1-1.6,0.3-2.4,0.4c-0.7,0.2-1.4,0.2-2.2,0.3c-0.7,0.1-1.5,0.3-2.2,0.4
			c-1.5,0.2-3,0.6-4.4,1.2c0.7,0.4,1.3,0.8,2.1,1.1c0.5,0.2,1.6,0.5,1.9,1c0.2,0.4,0,0.9-0.3,1.1l0,0c0,0,0,0,0,0l-1.9,0.6
			c-0.6,0.2-1.3,0.3-1.9,0.5l-1.9,0.5L132,208z M164.6,210.9c-0.9-0.5-1.8-0.8-2.8-1.2c-0.5-0.2-0.9-0.3-1.4-0.4l-1.4-0.4
			c-1.1-0.3-2-0.6-3-0.4c-0.8,0.2-1.6,0.4-2.4,0.6l2,1c0.7,0.3,1.3,0.7,2,1c0.8,0.4,1.6,0.8,2.4,1.2c0.4,0.2,1.1,0.5,1.4,0.8
			C162.5,212.4,163.5,211.7,164.6,210.9z M159.5,197.9c-0.5,0.1-1.1,0.2-1.6,0.3c-0.5,0.1-1,0.3-1.5,0.4c-0.7,0.2-0.8,0.6-1,1.4
			l-0.4,1.6c-0.3,1.1-0.6,2.1-0.9,3.2c-0.3,1-0.7,2.1-1.2,3.1c0.6-0.1,1.2-0.3,1.8-0.4c0.4-0.1,1-0.1,1.3-0.4
			c0.4-0.3,0.5-0.7,0.7-1.2c0.4-0.9,0.7-1.8,1.1-2.8C158.5,201.4,159,199.6,159.5,197.9z M172.2,196.9c-2.7-1.5-6.4-0.3-8.9,0.2
			c-0.7,0.1-2.3,0.1-2.7,0.8c-0.2,0.4-0.3,1.1-0.4,1.6l-0.5,1.6c-0.3,0.9-0.6,1.8-0.9,2.8c-0.3,0.9-0.7,1.8-1,2.7
			c1.4-0.5,2.8-1.1,4.1-1.7c0.7-0.3,1.3-0.7,1.9-1c0.6-0.4,1.3-0.7,1.9-1.1C168.1,201,170.3,199.1,172.2,196.9z M172.4,198.5
			c-3.6,4-8.2,7.1-13.4,9c0.6,0.2,1.1,0.3,1.7,0.5c0.6,0.2,1.1,0.3,1.7,0.5c0.6,0.2,1.1,0.4,1.7,0.7c0.6,0.2,1.1,0.5,1.6,0.8
			c0.9-0.8,1.7-1.6,2.5-2.5c0.7-0.9,1.4-1.8,2-2.7c0.6-1,1.1-2,1.4-3c0.2-0.5,0.4-1,0.5-1.6C172.2,199.6,172.3,199.1,172.4,198.5z
			 M123.3,209.3c0.8,0.6,1.6,1.1,2.5,1.6c0.9,0.5,1.8,0.8,2.7,1.2c0.4,0.1,0.9,0.4,1.3,0.4c1.2,0.1,2.2-0.9,2.1-2.2
			c-0.1-1.1-1.1-1.6-1.9-1.8c-1.1,0.2-2.2,0.4-3.3,0.5C125.5,209.1,124.4,209.2,123.3,209.3z"/>
	</g>
	<g>
		<path class="st11" d="M71.4,168.6c0.3,0.2,0.6,0.6,0.8,0.9l1.1,1.2c0.7,0.7,1.3,1.3,2,2c0.6,0.6,1.3,1.2,2,1.8
			c0.7,0.6,1.4,1.2,2.1,1.7l2.1,1.6l2.2,1.6c-0.2-1.1-0.5-2.1-0.5-3.2c0-0.5,0-1,0.5-1.2c0.4-0.1,0.8,0.1,1,0.3
			c0.8,0.4,1.6,0.8,2.2,1.4c2.9,2.2,5.6,4.8,8.3,7.2c2.8,2.4,5.7,4.7,8.6,7.1c2.5,2,5.3,4.1,7.4,6.8c0.5,0.6,1,1.3,1.3,2.2
			c0.1,0.2,0.1,0.5,0.2,0.7c0.2,0.6,0.6,0.6,1.2,0.5c0.4,0,1.2-0.3,1.2,0.3c0,0.3-0.2,0.5-0.4,0.7c-0.4,0.3-1,0.2-1.5,0.2
			c-0.6,0-1,0-1.5,0.3c-0.3,0.2-0.6,0.4-0.9,0.6c-0.7,0.5-1.5,0.9-2.4,1.2c-0.8,0.3-1.7,0.6-2.5,0.8c-3.5,0.9-7.4,0.6-11.1-0.3
			c-3.8-1-7.4-2.8-10.7-4.9c-3.6-2.4-6.8-5.7-9.1-9.3c-0.4-0.6-2.1-2.7-0.7-2.9c0.6-0.1,1.4,0.4,1.9,0.6c0.9,0.3,1.8,0.4,2.8,0.5
			c-2.6-2.9-5.3-5.8-7-9.3c-0.4-0.9-0.8-1.7-1.1-2.6c-0.3-0.9-0.5-1.8-0.7-2.7c-0.4-1.8-0.4-3.6-0.3-5.4
			C70.4,168.3,71,168.3,71.4,168.6z M78,176.7c-0.1,2-1.9,3-4,2.9c0.5,0.8,1,1.7,1.6,2.5c0.6,0.8,1.2,1.6,1.8,2.3
			c0.6,0.8,1.2,1.5,1.9,2.2c0.6,0.7,1.2,1.5,1.9,2.2c0.5,0.6,0.6,1.2-0.3,1.3c-0.8,0.1-1.8-0.1-2.6-0.2c-0.7-0.1-1.3-0.2-2-0.4
			c1.6,2.8,3.8,5.3,6.3,7.4c2.5,2.1,5.3,3.9,8.3,5.1c-0.2-0.9-0.3-1.8-0.5-2.7c-0.2-0.9-0.4-1.8-0.6-2.7c-0.2-0.9-0.4-1.8-0.6-2.8
			c-0.1-0.3-0.1-0.7-0.2-1c-0.2-0.4-0.7-0.8-1-1.1c-2.4-2.4-4.6-4.9-6.7-7.5c-0.2-0.2-0.5-0.5-0.7-0.8c-0.2-0.3-0.1-0.6,0.4-0.8
			c0.8-0.3,1.4,0.8,1.8,1.3c1,1.3,2.2,2.5,3.2,3.7l1.7,1.8c0.3,0.3,0.6,0.6,0.9,0.9l0.9,0.9c0.5,0.5,0.8,0.7,1.5,0.6
			c0.5-0.1,0.9-0.2,1.4-0.4c0.8-0.3,1.6-0.5,2.4-0.8c1.5-0.6,3-1.2,4.5-1.9c-2.6-2.1-5-4.2-7.6-6.4c-2.2-1.9-4.3-4.3-7-5.8
			c0.1,0.8,0.2,1.5,0.4,2.3c0.1,0.5,0.6,1.5,0.4,2.1c-0.2,0.4-0.7,0.5-1.1,0.4l0,0c0,0,0,0,0,0l-0.8-0.6l-0.8-0.6l-1.6-1.2
			c-0.5-0.4-1.1-0.8-1.6-1.2L78,176.7z M96,203.9c-0.2-1-0.5-1.9-0.8-2.9c-0.2-0.5-0.4-0.9-0.5-1.4c-0.2-0.5-0.4-0.9-0.6-1.4
			c-0.4-1-0.7-1.9-1.6-2.6c-0.6-0.5-1.3-1-2-1.5c0.3,1.5,0.6,2.9,0.9,4.4c0.2,0.9,0.4,1.7,0.5,2.6c0.1,0.5,0.3,1.1,0.3,1.6
			C93.5,203.2,94.8,203.6,96,203.9z M103,191.9c-0.4-0.3-0.8-0.7-1.2-1c-0.2-0.2-0.4-0.3-0.6-0.5c-0.2-0.2-0.4-0.3-0.6-0.5
			c-0.6-0.4-1-0.2-1.7,0.1l-1.5,0.7c-2,0.9-4,1.7-6.2,2.3c0.5,0.4,1,0.8,1.5,1.2c0.3,0.2,0.7,0.7,1.1,0.8c0.5,0.2,0.9,0,1.4-0.2
			c1-0.3,1.9-0.6,2.8-0.9c0.9-0.3,1.7-0.6,2.6-1C101.3,192.6,102.2,192.2,103,191.9z M111.7,201.1c-0.5-3-3.8-5.2-5.7-6.8
			c-0.6-0.5-1.5-1.7-2.3-1.6c-0.4,0.1-1.1,0.5-1.5,0.6l-1.5,0.6c-0.9,0.4-1.8,0.7-2.7,1c-0.9,0.3-1.8,0.6-2.8,0.9
			c2.5,1.6,5.2,2.8,8,3.8C105.9,200.5,108.8,201.1,111.7,201.1z M110.6,202.3c-0.3,0-0.7,0-1-0.1l-1-0.1c-0.7-0.1-1.3-0.2-2-0.3
			c-0.7-0.1-1.3-0.3-2-0.4c-0.7-0.2-1.3-0.4-2-0.5c-1.3-0.4-2.6-0.9-3.8-1.5c-0.6-0.3-1.2-0.6-1.8-0.9c-0.6-0.3-1.2-0.6-1.8-1
			c0.4,1.1,0.9,2.2,1.3,3.3c0.4,1.1,0.7,2.3,0.9,3.5c1.2,0.2,2.3,0.4,3.5,0.4c1.2,0,2.3,0,3.4-0.1c1.1-0.1,2.2-0.4,3.3-0.8
			c0.5-0.2,1-0.4,1.5-0.6C109.6,202.9,110.1,202.6,110.6,202.3z M71.5,170.6c0,0.5,0,1,0.1,1.5c0.1,0.5,0.1,1,0.2,1.4
			c0.1,0.5,0.2,1,0.3,1.4c0.1,0.2,0.1,0.5,0.2,0.7c0.1,0.2,0.2,0.5,0.2,0.7c0.1,0.4,0.3,0.9,0.5,1.2c0.6,1,2.1,1.1,3,0.3
			c0.8-0.7,0.6-1.8,0.3-2.7l-1.3-1.1c-0.4-0.4-0.8-0.8-1.2-1.2C73.1,172.2,72.3,171.5,71.5,170.6z"/>
	</g>
	<g>
		<path class="st11" d="M71,104.7c0,0.4-0.2,0.8-0.2,1.2l-0.3,1.6c-0.1,0.9-0.2,1.9-0.3,2.8c-0.3,3.7-0.3,7.3,0,10.8
			c0.3-0.4,0.7-0.9,1-1.3c0.2-0.2,0.4-0.4,0.5-0.6c0.2-0.2,0.4-0.4,0.6-0.5c0.4-0.3,0.8-0.7,1.3-0.3c0.3,0.2,0.4,0.7,0.5,1
			c0.2,0.9,0.3,1.7,0.3,2.6c0.1,3.6-0.3,7.4-0.4,10.9c-0.1,3.7-0.1,7.4-0.1,11.1c0,0.8,0,1.6,0,2.5c0,0.8,0,1.7-0.1,2.5
			c0,0.8-0.1,1.7-0.2,2.5c-0.1,0.4-0.1,0.9-0.2,1.3c-0.1,0.4-0.1,0.8-0.2,1.3c-0.2,0.8-0.4,1.6-0.9,2.4c-0.1,0.2-0.3,0.4-0.4,0.6
			c-0.3,0.6-0.1,0.8,0.4,1.3c0.3,0.3,0.9,0.7,0.5,1.2c-0.2,0.2-0.5,0.2-0.8,0.2c-0.5-0.1-0.8-0.7-1.1-1c-0.4-0.4-0.6-0.7-1.2-0.9
			c-0.3-0.1-0.7-0.2-1.1-0.3c-1.6-0.6-3.2-1.5-4.6-2.6c-5.7-4.5-9-12.5-9.5-20.3c0-0.5-0.1-1.1-0.1-1.6c0-0.5,0-1.1,0-1.6
			c0-1.1,0.1-2.2,0.2-3.3c0.3-2.2,0.7-4.3,1.5-6.4c0.1-0.3,0.3-1.2,0.6-1.8c0.3-0.6,0.7-1,1.2-0.6c0.2,0.2,0.3,0.5,0.4,0.9
			c0.1,0.3,0.2,0.7,0.3,1c0.4,0.9,0.9,1.7,1.4,2.5c0.2-1,0.3-1.9,0.5-2.9c0.2-1,0.4-1.9,0.6-2.9c0.1-0.5,0.2-1,0.3-1.4
			c0.1-0.5,0.3-0.9,0.4-1.4c0.2-0.5,0.3-0.9,0.5-1.4c0.1-0.2,0.2-0.5,0.3-0.7l0.3-0.7c0.4-0.9,0.9-1.7,1.3-2.5
			c0.5-0.8,1.1-1.5,1.7-2.2c0.3-0.3,0.6-0.7,0.9-1c0.3-0.3,0.7-0.6,1-0.9c0.7-0.6,1.4-1.1,2.1-1.7C70.6,103.7,70.9,104.2,71,104.7z
			 M68.7,114.9c-1.6,1.2-3.6,0.4-4.7-1.3c-1.5,3.6-2,7.5-2.8,11.3c-0.1,0.7-0.6,1.2-1.2,0.6c-0.6-0.6-1-1.5-1.4-2.2
			c-0.3-0.6-0.7-1.2-0.9-1.8c-2.3,6.1-2.4,13-0.8,19.2c1.3-1.4,2.5-2.8,3.6-4.3c0.6-0.7,1.2-1.5,1.8-2.2c0.2-0.2,0.5-0.5,0.7-0.8
			c0.2-0.4,0.1-1,0.2-1.5c0.2-1.7,0.4-3.3,0.7-5c0.2-0.8,0.3-1.7,0.4-2.5c0.2-0.8,0.3-1.6,0.5-2.5c0.1-0.6,0.2-1.8,1.1-1.2
			c0.7,0.5,0.2,1.6,0.1,2.2c-0.6,3.2-1.2,6.5-1.6,9.7c0,0.7-0.1,1,0.5,1.5c0.4,0.3,0.8,0.6,1.2,0.8c0.7,0.5,1.4,0.9,2.1,1.3
			c1.4,0.8,2.9,1.6,4.3,2.3c0-0.8,0-1.7,0-2.5l0.1-2.5c0-0.4,0-0.8,0-1.2l0.1-1.2l0-1.2c0-0.4,0-0.8,0-1.2c0-0.7,0.1-1.5,0.1-2.2
			l0-0.6l0.1-0.6c0-0.4,0.1-0.8,0.1-1.1c0-1.5,0.1-3-0.2-4.6c-0.6,0.5-1.1,1.1-1.6,1.8c-0.2,0.2-0.4,0.6-0.6,0.9
			c-0.2,0.3-0.5,0.6-0.8,0.7c-0.5,0.1-0.8-0.2-1-0.6l0,0c0,0,0,0,0,0c-0.1-0.7-0.1-1.3-0.1-1.9l-0.1-2
			C68.8,117.5,68.8,116.2,68.7,114.9z M58.7,146c0.7-0.8,1.2-1.6,1.7-2.4c0.5-0.8,1-1.7,1.5-2.6c0.5-1,1.1-1.8,1.1-2.9
			c0-0.4,0-0.8,0-1.2l0-0.6l0-0.6c-0.5,0.6-0.9,1.1-1.4,1.7c-0.5,0.6-0.9,1.2-1.4,1.7c-0.6,0.7-1.2,1.4-1.7,2
			c-0.3,0.4-0.7,0.9-1.1,1.2c0.2,0.6,0.4,1.2,0.6,1.8C58.2,144.8,58.4,145.4,58.7,146z M72.5,143.9c0-1.1,0.1-2.2,0-3.2
			c-0.1-0.7-0.5-0.9-1.2-1.2l-1.5-0.8c-1-0.5-1.9-1-2.9-1.6c-0.5-0.3-1-0.6-1.4-0.9c-0.5-0.3-0.9-0.6-1.4-0.9c0,0.3,0,0.6,0,0.9
			l0,0.9c0,0.4-0.1,1,0.1,1.3c0.2,0.5,0.6,0.7,1,0.9c0.8,0.6,1.7,1.1,2.5,1.6C69.3,142.2,70.9,143.1,72.5,143.9z M70.6,156.5
			c2.1-2.3,1.6-6.1,1.8-8.7c0-0.4,0.1-0.9,0.1-1.5c0-0.5,0-1.1-0.3-1.4c-0.3-0.3-1-0.5-1.4-0.8l-1.4-0.8c-1.7-1-3.3-2-4.9-3.1
			C65.1,146.2,67.2,151.9,70.6,156.5z M69,156.4c-3.1-4.4-5-9.6-5.8-15.1c-0.5,1-1.1,2.1-1.8,3.1c-0.6,1-1.3,2-2.1,2.9
			c0.5,1,1.2,2,1.9,2.9c0.3,0.5,0.7,0.9,1.1,1.3c0.4,0.4,0.8,0.8,1.2,1.2c0.8,0.8,1.7,1.5,2.6,2.1C67,155.5,68,156,69,156.4z
			 M69.5,106.1c-0.4,0.3-0.8,0.6-1.1,1c-0.3,0.3-0.7,0.7-1,1.1c-0.6,0.7-1.3,1.5-1.8,2.4c-0.2,0.4-0.5,0.8-0.7,1.2
			c-0.4,1.1,0.4,2.3,1.6,2.5c1.1,0.2,1.8-0.7,2.3-1.5l0.1-1.7l0.2-1.7l0.2-1.7C69.3,107.2,69.4,106.6,69.5,106.1z"/>
	</g>
	<g>
		<path class="st11" d="M120.6,64.6c-0.3,0.3-0.8,0.4-1.1,0.6c-0.5,0.2-0.9,0.5-1.4,0.8c-0.8,0.5-1.6,1-2.4,1.5
			c-3,2-5.8,4.4-8.4,6.7c1.1,0,2.2,0,3.2,0.2c0.5,0.1,1,0.2,1,0.8c0,0.4-0.3,0.7-0.5,1c-0.5,0.7-1.2,1.3-1.8,1.9
			c-2.8,2.3-5.9,4.4-8.8,6.5c-2.9,2.2-5.9,4.5-8.8,6.8c-2.6,2-5.2,4.3-8.3,5.8c-0.7,0.4-1.5,0.7-2.4,0.8c-0.3,0-0.5,0-0.8,0
			c-0.6,0.1-0.7,0.5-0.8,1.1c-0.1,0.4,0,1.2-0.6,1.1c-0.3,0-0.5-0.3-0.6-0.5c-0.2-0.4,0.1-1,0.1-1.5c0.1-0.6,0.2-1,0-1.5
			c-0.1-0.4-0.3-0.7-0.4-1c-0.3-0.8-0.5-1.7-0.6-2.6c-0.1-0.9-0.2-1.8-0.2-2.7c0-1.8,0.2-3.7,0.7-5.4c0.2-0.9,0.5-1.8,0.9-2.7
			c0.4-0.9,0.8-1.8,1.2-2.6c0.4-0.9,1-1.7,1.5-2.5c0.3-0.4,0.5-0.8,0.8-1.2c0.3-0.4,0.6-0.8,0.9-1.2c0.6-0.8,1.2-1.5,1.9-2.3
			c0.7-0.7,1.4-1.4,2.1-2.1c3.2-3,7-5.4,11.1-6.8c0.7-0.2,3.1-1.4,3,0c0,0.6-0.7,1.2-1,1.7c-0.2,0.4-0.4,0.8-0.6,1.3
			c-0.2,0.4-0.3,0.9-0.5,1.3c0.8-0.5,1.7-1,2.6-1.4c0.9-0.5,1.7-0.9,2.6-1.3c0.9-0.4,1.8-0.8,2.7-1.2c0.9-0.3,1.9-0.6,2.8-0.9
			c3.7-0.9,7.4-0.7,10.8,0.4C121.2,63.7,121,64.2,120.6,64.6z M111.3,69.1c-2-0.5-2.5-2.6-2-4.5c-1.9,0.5-3.7,1.3-5.4,2.1l-2.6,1.3
			c-0.4,0.2-0.9,0.4-1.3,0.7c-0.4,0.2-0.9,0.5-1.3,0.7c-0.7,0.3-1.3,0.3-1.2-0.6c0.1-0.8,0.5-1.7,0.8-2.5c0.2-0.6,0.5-1.3,0.8-1.9
			c-6.2,2-11.6,6.3-15.5,11.4c0.9,0.1,1.9,0.1,2.8,0.1l1.4,0l1.4,0l2.8,0.1c0.3,0,0.7,0.1,1,0c0.5-0.1,0.9-0.5,1.3-0.7
			c1.4-0.9,2.9-1.7,4.3-2.6c0.7-0.4,1.5-0.8,2.2-1.2l1.1-0.6c0.4-0.2,0.7-0.4,1.1-0.6c0.5-0.3,1.6-1,1.6,0.1
			c0.1,0.9-1.1,1.1-1.7,1.4l-2.2,1.2l-1.1,0.6c-0.4,0.2-0.7,0.4-1.1,0.6l-2.2,1.2L94.5,77c-0.6,0.4-0.9,0.6-0.9,1.3
			c0,0.5,0,1,0.1,1.5c0.1,0.8,0.2,1.7,0.3,2.5c0.2,1.6,0.6,3.3,0.9,4.8c1.3-1,2.6-2,3.9-3c0.7-0.5,1.3-1,2-1.5c0.7-0.5,1.3-1,2-1.5
			c0.3-0.2,0.6-0.4,0.9-0.7c0.3-0.2,0.6-0.4,0.9-0.6c0.6-0.4,1.2-0.9,1.9-1.3c1.3-0.8,2.4-1.8,3.5-2.9c-0.8-0.1-1.6-0.2-2.3-0.1
			c-0.5,0-1.6,0.3-2.1-0.1c-0.4-0.3-0.4-0.8-0.2-1.1l0,0c0,0,0,0,0,0l1.4-1.3c0.5-0.4,1-0.8,1.5-1.3l1.5-1.3L111.3,69.1z M80.8,80.7
			c1,0,2,0,3-0.2c1-0.1,1.9-0.3,2.9-0.5c1.1-0.2,2-0.3,2.9-1c0.6-0.5,1.3-1,1.9-1.6l-2.2,0l-2.2,0c-0.9,0-1.8,0-2.7-0.1
			c-0.5,0-1.1,0-1.6-0.1c-0.4,0.6-0.7,1.1-1,1.7l-0.5,0.8C81,80.1,80.9,80.4,80.8,80.7z M91,90.2c0.8-0.7,1.8-1.2,2.5-2
			c0.5-0.5,0.4-0.9,0.3-1.7l-0.3-1.6c-0.2-1.1-0.4-2.2-0.6-3.3c-0.1-1.1-0.3-2.2-0.3-3.3c-0.5,0.4-1,0.8-1.5,1.2
			c-0.3,0.3-0.8,0.6-1,0.9c-0.3,0.4-0.2,0.9-0.1,1.3c0.1,1,0.1,2,0.2,2.9C90.4,86.6,90.6,88.4,91,90.2z M80,96.6
			c3.1,0.2,5.8-2.6,7.9-4c0.6-0.5,2-1.1,2.1-1.9c0-0.4-0.2-1.1-0.3-1.6c-0.1-0.5-0.2-1.1-0.3-1.6c-0.1-0.9-0.3-1.9-0.4-2.9
			c-0.1-1-0.2-2-0.3-2.9C84.5,85.8,81.4,91,80,96.6z M79.1,95.2c1.5-5.1,4.4-9.9,8.2-13.9c-1.1,0.2-2.3,0.4-3.5,0.6
			c-1.2,0.1-2.4,0.2-3.6,0.2c-0.2,0.5-0.5,1.1-0.6,1.6c-0.2,0.6-0.3,1.1-0.5,1.7c-0.3,1.1-0.5,2.2-0.6,3.3c-0.1,1.1-0.1,2.2,0,3.3
			C78.5,93.1,78.7,94.2,79.1,95.2z M118.7,64.2c-1-0.2-1.9-0.3-2.9-0.4c-0.2,0-0.5,0-0.7,0c-0.2,0-0.5,0-0.7,0c-0.5,0-1,0.1-1.5,0.1
			c-0.4,0-0.9,0.1-1.3,0.2c-1.1,0.4-1.6,1.8-1,2.9c0.5,1,1.6,0.9,2.5,0.8c0.9-0.6,1.8-1.3,2.7-1.9C116.7,65.4,117.7,64.8,118.7,64.2
			z"/>
	</g>
	<g>
		<path class="st11" d="M183,78.4c-0.4,0-0.8-0.3-1.1-0.5c-0.5-0.2-1-0.4-1.5-0.6c-0.9-0.3-1.8-0.6-2.7-0.9c-3.5-1.1-7-1.8-10.5-2.4
			c0.7,0.9,1.3,1.7,1.8,2.7c0.2,0.4,0.5,0.9,0,1.3c-0.3,0.3-0.7,0.2-1.1,0.3c-0.9,0-1.8-0.1-2.6-0.3c-3.6-0.7-7.1-1.9-10.6-2.8
			c-3.6-0.9-7.1-1.8-10.8-2.6c-3.1-0.7-6.6-1.4-9.7-2.9c-0.7-0.4-1.5-0.8-2.1-1.4c-0.2-0.2-0.3-0.4-0.5-0.6c-0.5-0.5-0.8-0.3-1.3,0
			c-0.3,0.2-0.9,0.7-1.2,0.2c-0.1-0.2-0.1-0.6,0-0.8c0.2-0.4,0.8-0.6,1.2-0.8c0.5-0.3,0.8-0.4,1.2-1c0.2-0.3,0.4-0.6,0.6-1
			c0.5-0.7,1-1.5,1.6-2.1c0.6-0.6,1.2-1.2,1.9-1.8c2.8-2.3,6.3-3.8,10.2-4.6c1.9-0.3,3.9-0.6,5.9-0.6c1,0,2,0,3,0.1
			c1,0.1,2,0.2,2.9,0.3c4.3,0.7,8.6,2.2,12.2,4.5c0.6,0.4,3,1.6,1.9,2.4c-0.5,0.3-1.4,0.2-2,0.3c-0.5,0.1-0.9,0.2-1.4,0.3
			c-0.5,0.1-0.9,0.3-1.3,0.5c0.9,0.3,1.8,0.7,2.7,1.1c0.9,0.4,1.8,0.8,2.7,1.2c0.9,0.4,1.7,0.9,2.6,1.4c0.8,0.5,1.6,1.1,2.4,1.6
			c3,2.3,5.2,5.3,6.4,8.7C184,78.2,183.5,78.4,183,78.4z M173.6,73.9c-0.8-1.9,0.5-3.6,2.3-4.3c-1.6-1.2-3.3-2-5.1-2.9
			c-1.8-0.8-3.6-1.6-5.3-2.4c-0.7-0.3-1.1-0.8-0.3-1.3c0.7-0.4,1.6-0.6,2.4-0.9c0.6-0.2,1.3-0.4,2-0.5c-5.4-3.6-12.2-5.2-18.6-5
			c1.1,1.6,2.2,3,3.4,4.5l1.7,2.2c0.2,0.2,0.4,0.6,0.6,0.8c0.4,0.3,0.9,0.4,1.4,0.5c1.6,0.5,3.1,1.2,4.7,1.8l2.3,1l1.2,0.5l1.1,0.5
			c0.5,0.2,1.7,0.6,1,1.3c-0.6,0.6-1.6-0.2-2.2-0.4c-0.7-0.3-1.5-0.6-2.3-1c-0.8-0.3-1.5-0.7-2.3-1l-2.3-0.9
			c-0.8-0.3-1.6-0.5-2.3-0.8c-0.7-0.2-1-0.3-1.6,0.1c-0.4,0.3-0.7,0.7-1.1,1c-0.6,0.6-1.2,1.2-1.8,1.8c-0.6,0.6-1.1,1.2-1.6,1.8
			l-1.6,1.9c3.2,0.8,6.4,1.6,9.6,2.5c0.3,0.1,0.7,0.2,1.1,0.3c0.4,0.1,0.7,0.2,1.1,0.3c0.7,0.2,1.4,0.4,2.2,0.6
			c1.4,0.5,3,0.8,4.5,0.9c-0.4-0.7-0.9-1.3-1.4-1.9c-0.3-0.4-1.2-1.1-1.3-1.7c0-0.5,0.4-0.8,0.8-0.8l0,0c0,0,0,0,0,0l1.9,0.3
			c0.6,0.1,1.3,0.2,1.9,0.4c0.6,0.1,1.3,0.2,2,0.4L173.6,73.9z M145.5,57.2c0.6,0.8,1.3,1.6,2,2.2c0.7,0.7,1.5,1.3,2.2,2
			c0.8,0.7,1.5,1.4,2.6,1.7c0.8,0.2,1.6,0.4,2.4,0.5c-0.9-1.2-1.8-2.4-2.7-3.5c-0.5-0.7-1.1-1.4-1.6-2.1c-0.3-0.4-0.7-0.9-1-1.4
			C148.1,56.8,146.8,56.9,145.5,57.2z M144.5,71.1c1,0.3,2.1,0.6,3.1,0.7c0.7,0.1,1-0.2,1.5-0.8l1.1-1.3c1.4-1.7,2.9-3.3,4.6-4.8
			c-0.6-0.2-1.2-0.3-1.8-0.4c-0.4-0.1-0.9-0.3-1.3-0.2c-0.5,0.1-0.8,0.4-1.1,0.7c-0.7,0.7-1.5,1.3-2.1,2
			C146.9,68.4,145.7,69.7,144.5,71.1z M132.6,66.5c1.8,2.5,5.6,3,8.1,3.6c0.7,0.2,2.1,0.9,2.8,0.5c0.4-0.2,0.8-0.9,1.1-1.2l1.1-1.2
			c1.3-1.4,2.7-2.8,4.1-4.1l-1.1-0.1l-1.1-0.1c-0.7,0-1.5,0-2.2-0.1c-0.7,0-1.5,0.1-2.2,0.1c-0.7,0.1-1.5,0.1-2.2,0.2
			C138.1,64.6,135.2,65.3,132.6,66.5z M133.1,65c4.9-2,10.5-2.8,16-2.3c-0.9-0.8-1.8-1.5-2.6-2.4c-0.4-0.4-0.8-0.9-1.2-1.3
			c-0.4-0.4-0.8-0.9-1.1-1.4c-0.6,0.2-1.1,0.3-1.7,0.5c-0.5,0.2-1.1,0.4-1.6,0.6c-1.1,0.5-2.1,1-3,1.6c-0.9,0.6-1.8,1.3-2.6,2.1
			C134.4,63.2,133.7,64,133.1,65z M182.1,76.6c-0.9-1.7-2-3.4-3.5-4.8c-0.3-0.3-0.6-0.7-1-0.9c-1-0.7-2.4-0.1-2.8,1
			c-0.2,0.5-0.1,1,0.1,1.4c0.1,0.2,0.2,0.4,0.4,0.6c0.2,0.2,0.3,0.4,0.5,0.5c1.1,0.3,2.1,0.6,3.2,1C179.9,75.8,181,76.2,182.1,76.6z
			"/>
	</g>
	<g>
		<path class="st11" d="M211.1,135.7c-0.2-0.3-0.2-0.8-0.3-1.2l-0.5-1.6c-0.3-0.9-0.6-1.8-1-2.7l-0.5-1.3c-0.2-0.4-0.4-0.8-0.5-1.3
			c-0.4-0.8-0.7-1.7-1.1-2.5c-0.8-1.6-1.6-3.2-2.5-4.7c-0.1,0.5-0.2,1.1-0.4,1.6c-0.1,0.5-0.3,1-0.6,1.5c-0.2,0.4-0.4,0.9-1,0.8
			c-0.4-0.1-0.6-0.4-0.8-0.7c-0.5-0.7-1-1.4-1.4-2.2c-1.7-3.2-2.9-6.8-4.3-10c-1.5-3.4-3.1-6.7-4.7-10c-0.3-0.7-0.7-1.5-1.1-2.2
			c-0.4-0.7-0.7-1.5-1-2.3c-0.4-0.8-0.7-1.6-0.9-2.4c-0.3-0.8-0.5-1.6-0.7-2.5c-0.1-0.4-0.2-0.8-0.2-1.2c0-0.4-0.1-0.8,0-1.3
			c0-0.3,0.1-0.5,0.1-0.8c0.1-0.7-0.3-0.8-0.9-1c-0.2-0.1-0.5-0.1-0.7-0.3c-0.2-0.1-0.4-0.3-0.3-0.6c0.1-0.3,0.4-0.4,0.6-0.5
			c0.5-0.1,1,0.3,1.4,0.5c0.5,0.2,0.9,0.4,1.5,0.3c0.4,0,0.7-0.1,1.1-0.2c0.9-0.1,1.8-0.1,2.6,0c0.9,0.1,1.8,0.2,2.6,0.4
			c0.9,0.2,1.7,0.5,2.6,0.8c0.9,0.3,1.7,0.7,2.6,1.1c1.6,0.9,3.3,1.9,4.7,3.2c1.5,1.2,2.8,2.7,4.1,4.2c0.6,0.8,1.2,1.6,1.8,2.4
			c0.3,0.4,0.6,0.8,0.8,1.2c0.3,0.4,0.5,0.8,0.7,1.3c1.1,1.9,2,3.9,2.7,6c0.3,1,0.6,2.1,0.9,3.2c0.1,0.5,0.2,1.1,0.3,1.6
			c0.1,0.5,0.2,1.1,0.2,1.6c0,0.3,0.2,1.2,0.2,1.9c0,0.7-0.2,1.3-0.9,1.1c-0.6-0.2-1-1-1.4-1.4c-0.7-0.6-1.5-1.1-2.3-1.6
			c1.2,3.7,2.2,7.6,2.3,11.5c0,0.9,0,1.9-0.1,2.8c-0.1,0.9-0.3,1.8-0.6,2.7c-0.1,0.4-0.2,0.9-0.4,1.3c-0.2,0.4-0.3,0.9-0.5,1.3
			c-0.4,0.8-0.8,1.6-1.2,2.4C211.9,136.4,211.4,136.2,211.1,135.7z M208.7,125.6c0.5-0.9,1.2-1.4,2.1-1.5c0.9-0.1,1.9,0.1,2.7,0.6
			c-0.2-3.9-1.4-7.7-2.3-11.4c-0.2-0.7,0-1.4,0.8-1c0.8,0.3,1.5,0.9,2.2,1.3c0.6,0.4,1.1,0.8,1.6,1.2c-0.6-6.5-3.4-12.8-7.7-17.7
			c-0.2,0.9-0.5,1.8-0.7,2.7c-0.2,0.9-0.5,1.8-0.7,2.7c-0.2,0.9-0.5,1.9-0.7,2.8c-0.1,0.3-0.3,0.7-0.3,1c0,0.5,0.3,1,0.4,1.4
			l0.8,2.4l0.2,0.6l0.2,0.6l0.3,1.2c0.5,1.6,0.9,3.2,1.3,4.8c0.2,0.5,0.6,1.7-0.5,1.6c-0.4-0.1-0.6-0.4-0.7-0.8
			c-0.1-0.4-0.2-0.9-0.3-1.2c-0.2-0.8-0.4-1.6-0.6-2.4c-0.2-0.8-0.5-1.6-0.7-2.4c-0.1-0.4-0.2-0.8-0.3-1.2l-0.4-1.2
			c-0.3-0.8-0.5-1.6-0.8-2.3c-0.3-0.6-0.4-1-1.1-1.2c-0.5-0.1-1-0.2-1.4-0.3c-0.8-0.1-1.6-0.2-2.5-0.3c-1.7-0.1-3.3-0.2-4.9-0.2
			c1.4,3,2.7,6,4,9c0.3,0.7,0.6,1.4,0.8,2.1c0.3,0.7,0.5,1.4,0.8,2.1c0.1,0.4,0.3,0.7,0.5,1c0.1,0.3,0.3,0.7,0.5,1
			c0.3,0.7,0.7,1.3,1.2,2c0.3-0.7,0.4-1.5,0.6-2.3c0.1-0.5,0.2-1.7,0.6-2.1c0.3-0.3,0.8-0.2,1.1,0.1l0,0c0,0,0,0,0,0l1.9,3.4
			C207.5,123.2,208.2,124.4,208.7,125.6z M204.3,93.2c-0.2,1-0.4,2-0.5,2.9c-0.1,1-0.2,2-0.2,3c0,0.6,0,1.1,0,1.6
			c0,0.5,0.1,1,0.3,1.5c0.2,0.4,0.4,0.7,0.6,1.1c0.2,0.4,0.4,0.7,0.6,1.1c0.2-0.7,0.3-1.4,0.5-2.2c0.2-0.7,0.3-1.4,0.5-2.2
			c0.2-0.9,0.4-1.7,0.7-2.6c0.1-0.5,0.2-1.1,0.5-1.6c-0.5-0.5-0.9-0.9-1.4-1.4C205.3,94.1,204.8,93.6,204.3,93.2z M192.8,101.1
			c0.2,0.5,0.4,1,0.7,1.5c0.2,0.5,0.4,1,0.7,1.4c0.4,0.6,0.8,0.6,1.6,0.6l1.6,0c1.1,0,2.2,0.1,3.3,0.2c0.6,0,1.1,0.1,1.7,0.2
			c0.6,0.1,1.1,0.2,1.6,0.3c-0.1-0.3-0.2-0.6-0.4-0.9l-0.4-0.8c-0.2-0.4-0.4-0.9-0.7-1.2c-0.3-0.4-0.8-0.4-1.3-0.4
			c-1-0.2-2-0.3-3-0.4c-0.9-0.1-1.8-0.2-2.7-0.3C194.6,101.1,193.7,101.1,192.8,101.1z M189,88.9c-0.4,1.5-0.2,3.1,0.4,4.5
			c0.3,0.8,0.6,1.5,0.9,2.2c0.2,0.3,0.3,0.7,0.5,1c0.1,0.3,0.3,0.6,0.4,0.9c0.3,0.7,0.7,2.2,1.4,2.5c0.4,0.1,1.2,0,1.6,0.1l1.6,0.1
			c1,0.1,1.9,0.2,2.9,0.3c1,0.1,1.9,0.2,2.9,0.4C198.4,95.8,194.1,91.6,189,88.9z M190.5,88.3c4.6,2.6,8.7,6.5,11.7,11.1
			c0.1-2.4,0.2-4.7,0.9-7.1C199.3,89.6,194.9,87.9,190.5,88.3z M211.9,133.9c0.2-0.4,0.4-0.9,0.6-1.4c0.2-0.5,0.3-0.9,0.4-1.4
			c0.3-0.9,0.5-1.9,0.6-2.9c0-0.4,0.1-0.9,0.1-1.3c-0.1-1.2-1.4-1.9-2.6-1.6c-1.1,0.3-1.3,1.4-1.4,2.3c0.5,1,0.8,2,1.2,3.1l0.6,1.6
			C211.6,132.8,211.7,133.3,211.9,133.9z"/>
	</g>
</g>
<g>
	<g>
		<path class="st5" d="M345.8,346.4c-0.6-0.1-2.2-0.1-2.1-1c0-0.3,0.3-0.5,0.5-0.6c0.7-0.4,1.5-0.6,2.2-0.9c0.4-0.2,0.8-0.5,1.2-0.8
			c0.4-0.3,0.7-0.6,1.1-0.9c0.7-0.7,1.2-1.4,1.7-2.3c-1.4,0.5-2.9,0.8-4.3,1c-1.4,0.2-2.9,0.1-4.3,0c-1.4-0.1-2.8-0.5-4.1-0.9
			c-1.3-0.5-2.6-1.1-3.8-1.8c-1.2-0.8-2.4-1.7-3.4-2.7c-0.6-0.5-2.5-2.2-2.4-3c0.1-0.8,2-0.5,2.6-0.6c1.6,0,3.1-0.2,4.7-0.4
			c3.2-0.5,5.9-1.9,8.4-4.1l0.8-0.7l0.8-0.7c0.5-0.4,1.1-0.9,1.6-1.3c0.5-0.4,0.6-0.3,0-0.3c-0.4-0.1-0.8,0-1.2-0.1
			c-0.6,0-1.1-0.1-1.7-0.2c-0.4-0.1-1.8-0.3-2.8-0.8c-1.1-0.4-1.9-1-1.1-1.5c0.5-0.4,1.6-0.5,2.2-0.8l1.8-0.7c1.4-0.5,2.6-1.1,4-1.8
			c0.7-0.4,1.4-0.8,2-1.2c0.7-0.4,1.3-0.9,1.9-1.4c1.2-1,2.4-2.2,3.3-3.5c0.1-0.2,0.9-1,0.7-1.2c0,0-0.8,0.2-0.9,0.2
			c-0.7,0.2-1.5,0.3-2.2,0.3c-0.8,0.1-2.7,0.3-3.4-0.2c-0.6-0.5,0-1.1,0.8-1.7c0.4-0.3,0.9-0.6,1.3-0.8c0.4-0.2,0.7-0.4,0.8-0.5
			c0.9-0.6,1.9-1.1,2.8-1.8c0.9-0.6,1.8-1.3,2.6-2.1c0.8-0.8,1.6-1.8,2.1-2.9c0.5-1.1,0.7-2.3,0.5-3.5c-0.2-1.1-1.2-1.9-1.5-2.8
			c-0.1-0.2-0.1-0.3-0.1-0.5c0.1-0.3,0.5-0.7,0.9-0.6c0.5,0,0.7,0.7,0.9,1c0.4,0.6,0.7,1.4,1.1,2c0.5,0.8,1.6,1.3,2.3,2
			c0.5,0.4,0.9,0.8,1.3,1.3c0.6,0.6,1.1,1.3,1.5,2c0.5,0.7,0.8,1.5,1.2,2.2c0.4,0.8,0.7,1.6,1,2.4c0.3,0.8,0.5,1.7,0.7,2.5
			c0.2,0.8,0.4,1.6,0.5,2.4c0.1,0.8,0.3,1.6,0.4,2.5c0.3,1.7,0.3,3.4,0.4,5.1c0,0.4,0,0.9,0,1.3c0,0.4,0,0.9-0.1,1.3
			c-0.1,0.9-0.1,1.8-0.3,2.6c-0.1,0.9-0.3,1.7-0.5,2.6c-0.2,0.9-0.4,1.8-0.7,2.6c-0.6,1.8-1.4,3.7-2.4,5.3c-0.5,0.9-1.2,2.4-2.1,2.8
			c-0.6,0.3-1.1,0.1-1.2-0.5c-0.1-0.7,0.3-1.9,0.3-2.6c0.1-0.7,0.1-1.4,0.1-2.1c-0.3,0.8-0.7,1.5-1.1,2.3c-0.4,0.7-0.9,1.5-1.4,2.2
			c-1,1.4-2.2,2.7-3.4,3.9c-0.6,0.6-1.3,1.1-2,1.6c-0.7,0.5-1.4,1-2.1,1.4c-1.5,0.8-3,1.4-4.5,1.7
			C348.6,346.5,347.2,346.6,345.8,346.4z M347.2,345.1c0.7,0,1.5-0.1,2.2-0.2c0.7-0.1,1.4-0.4,2.1-0.6c0.7-0.3,1.4-0.6,2.1-0.9
			c0.7-0.4,1.3-0.8,2-1.3c2.6-1.8,4.8-4.4,6.4-7.2c0.7-1.3,1.3-2.7,1.8-4.1c0.2-0.6,0.2-1.2,0.9-1.4c0.8-0.3,1.3,0.5,1.5,1.6
			c0.2,1.1,0.1,2.6,0,3.6c0.4-0.7,0.8-1.4,1.1-2.1c0.3-0.7,0.6-1.5,0.8-2.2c0.5-1.5,0.9-3,1.1-4.5c0.5-3,0.6-6,0.3-8.9
			c-0.2-3.2-0.8-6.5-1.8-9.4c-0.2-0.7-0.5-1.4-0.9-2.1c-0.3-0.7-0.7-1.3-1.1-2c-0.8-1.2-1.7-2.4-2.9-3.3c0.5,1.6,0.7,3.3,0.8,5
			c0.1,0.9,0,1.7,0,2.6c0,0.9-0.1,1.7-0.2,2.6c-0.1,0.9-0.3,1.7-0.5,2.6c-0.2,0.9-0.4,1.7-0.7,2.6l-0.4,1.3
			c-0.2,0.4-0.3,0.8-0.5,1.2c-0.3,0.8-0.7,1.6-1,2.4c-0.3,0.7-0.7,1.4-1.1,2.1c-0.2,0.4-0.4,0.7-0.6,1.1c-0.2,0.3-0.4,0.7-0.6,1
			c-0.4,0.7-0.9,1.4-1.3,2.1c-0.5,0.7-1,1.3-1.5,2c-0.3,0.3-0.5,0.6-0.8,0.9c-0.3,0.3-0.6,0.6-0.8,0.9c-0.6,0.6-1.1,1.1-1.7,1.7
			c-0.6,0.5-1.2,1-1.9,1.5c-0.3,0.2-0.6,0.4-1,0.7c-0.3,0.2-0.7,0.4-1,0.6c-1.2,0.6-2.4,1.2-3.8,1.3c-0.6,0.1-1.7,0.3-2.2,0
			c-0.4-0.3-0.5-0.8,0-1.1c0.2-0.1,0.6,0,0.8-0.1c0.5,0,1.1-0.1,1.6-0.2c0.5-0.1,1-0.3,1.5-0.5c0.8-0.3,1.5-0.7,2.2-1.2
			c0.7-0.5,1.4-1,2.1-1.5c0.7-0.5,1.3-1.2,1.9-1.8c0.6-0.6,1.2-1.3,1.7-1.9c0.5-0.7,1.1-1.3,1.6-2c0.5-0.7,0.9-1.4,1.4-2.1
			c0.2-0.4,0.5-0.7,0.7-1.1l0.6-1.1c0.4-0.8,0.8-1.5,1.1-2.3c2.5-5.6,3.7-12,2.4-17.8c-0.3,0.7-0.7,1.4-1.1,2
			c-0.4,0.6-0.9,1.2-1.5,1.7c-0.6,0.5-1.1,1-1.7,1.5c-0.3,0.2-0.6,0.5-0.9,0.7c-0.3,0.2-0.6,0.4-0.9,0.6c-0.8,0.5-1.7,1.1-2.4,1.6
			c-0.3,0.2-1,0.5-1.1,0.7c-0.1,0.2-0.2,0,0.2,0.1c0.2,0,0.5,0,0.7,0c0.7,0,1.3-0.1,2-0.3c0.6-0.1,1.3-0.3,1.9-0.5
			c0.4-0.1,1-0.4,1.4-0.2c0.7,0.4-0.1,2.1-1.4,3.6c-0.3,0.4-0.6,0.8-1,1.2c-0.3,0.4-0.7,0.7-1,1c-0.6,0.6-1.1,1.1-1.3,1.2
			c-0.7,0.6-1.4,1.1-2.1,1.6c-0.4,0.2-0.7,0.5-1.1,0.7c-0.4,0.2-0.8,0.4-1.1,0.6c-0.8,0.4-1.5,0.8-2.3,1.2c-0.8,0.3-1.6,0.7-2.4,1
			c-0.2,0.1-0.7,0.2-1.2,0.4c-0.5,0.2-0.9,0.3-0.9,0.5c0,0.3,3.2,0.6,3.3,0.6c0.9,0.1,1.9,0.1,2.9,0.1c0.4,0,1.1-0.1,1.4,0.1
			c1.1,0.7-0.8,1.5-1.2,1.8c-0.8,0.5-1.5,1.1-2.2,1.7l-1,0.9l-1,0.9c-1.3,1.2-2.8,2-4.2,2.8c-0.8,0.3-1.5,0.6-2.3,0.9
			c-0.4,0.1-0.8,0.2-1.2,0.3c-0.4,0.1-0.8,0.2-1.3,0.2c-0.9,0.1-1.9,0.2-2.8,0.3l-1.2,0.1c-0.1,0-1.3-0.1-1.4,0.1
			c-0.2,0.3,0.7,1.1,1.6,1.9c0.9,0.8,2,1.5,2.2,1.7c1.6,1.1,3.4,1.9,5.3,2.4c0.9,0.2,1.9,0.4,2.9,0.5c1,0.1,2,0.1,3,0
			c1.9-0.2,3.8-0.6,5.6-1.3c0.7-0.3,1.7-0.6,1.7,0.4c0,0,0,0,0,0l0,0c-0.4,1.4-1.1,2.6-2,3.7c-0.5,0.5-1,1-1.5,1.5
			C348.4,344.4,347.8,344.7,347.2,345.1z"/>
	</g>
	<g>
		<path class="st5" d="M279.2,366.4c-0.3-0.5-1.3-1.8-0.6-2.3c0.3-0.2,0.5-0.1,0.8,0c0.7,0.3,1.4,0.8,2.1,1.2
			c0.9,0.4,1.8,0.7,2.8,0.7c0.9,0.1,1.9,0,2.8-0.1c-1.3-0.8-2.4-1.8-3.5-2.8c-1-1.1-1.9-2.2-2.7-3.4c-0.8-1.2-1.4-2.5-1.8-3.8
			c-0.5-1.3-0.8-2.7-0.9-4.1c-0.2-1.4-0.2-2.9,0-4.3c0.1-0.8,0.2-3.3,0.8-3.8c0.4-0.2,0.8,0.1,1.1,0.5c0.4,0.4,0.7,0.9,0.9,1.2
			c0.5,0.6,1,1.2,1.6,1.8c0.5,0.6,1.1,1.1,1.7,1.7c0.3,0.3,0.6,0.5,0.9,0.8c0.3,0.2,0.6,0.5,1,0.7c0.7,0.4,1.3,0.8,2,1.1
			c0.7,0.3,1.4,0.6,2.2,0.8c0.4,0.1,0.8,0.2,1.1,0.3c0.4,0.1,0.8,0.2,1.2,0.2c0.7,0.1,1.4,0.3,2,0.4c0.7,0.1,1.4,0.3,2,0.4
			c0.6,0.1,0.5,0.3,0.3-0.2c-0.2-0.3-0.5-0.7-0.7-1c-0.3-0.5-0.6-0.9-0.9-1.4c-0.1-0.2-0.3-0.6-0.5-1c-0.2-0.5-0.5-1.1-0.6-1.7
			c-0.3-1.1-0.4-2.1,0.5-1.8c0.6,0.1,1.4,0.9,2,1.2c0.6,0.3,1.1,0.7,1.7,1c0.6,0.3,1.3,0.7,1.9,1l1,0.5l1,0.4
			c0.7,0.3,1.5,0.6,2.2,0.9c0.8,0.3,1.5,0.4,2.3,0.6c1.6,0.4,3.2,0.5,4.8,0.4c0.2,0,1.3,0,1.4-0.2c0,0-0.6-0.5-0.7-0.5
			c-0.6-0.5-1.1-1-1.6-1.5c-0.6-0.6-2-2-2-2.8c0-0.8,0.8-0.7,1.8-0.4c0.9,0.2,2,0.7,2.3,0.8c1,0.4,2.1,0.7,3.1,1.1
			c1.1,0.3,2.2,0.6,3.3,0.8c1.1,0.1,2.4,0.2,3.6-0.1c1.2-0.3,2.3-0.8,3.1-1.8c0.7-0.9,0.8-2,1.3-2.9c0.1-0.2,0.1-0.3,0.3-0.4
			c0.3-0.1,0.8,0,1.1,0.3c0.3,0.4-0.1,1-0.2,1.3c-0.1,0.4-0.3,0.7-0.4,1.1c-0.2,0.3-0.3,0.7-0.5,1c-0.3,0.9,0,2.1-0.1,3.1
			c0,0.6-0.1,1.2-0.2,1.8c-0.3,1.6-0.9,3.2-1.6,4.8c-0.8,1.5-1.7,3-2.8,4.4c-2,2.5-4.3,5-7,7.2c-0.7,0.5-1.4,1.1-2.1,1.6
			c-0.7,0.5-1.5,1-2.2,1.4c-0.8,0.4-1.6,0.9-2.4,1.3c-0.8,0.4-1.6,0.7-2.5,1c-0.5,0.2-0.9,0.3-1.4,0.5c-0.5,0.1-0.9,0.3-1.4,0.4
			c-0.9,0.2-1.9,0.4-2.9,0.6c-1,0.1-2.6,0.5-3.5,0.1c-0.7-0.3-0.7-0.8-0.3-1.2c0.5-0.5,1.6-1,2.3-1.4c0.6-0.4,1.2-0.8,1.7-1.3
			c-0.8,0.2-1.6,0.4-2.5,0.5c-0.8,0.1-1.7,0.2-2.6,0.3c-0.9,0-1.7,0-2.6,0c-0.9,0-1.7-0.1-2.6-0.2c-3.4-0.5-6.6-1.8-9-3.8
			C280.9,368.6,279.9,367.6,279.2,366.4z M281.1,366.7c1.8,2.3,4.6,3.8,7.6,4.7c1.5,0.4,3.1,0.7,4.7,0.8c0.8,0,1.6,0,2.4,0
			c0.8,0,1.6-0.2,2.4-0.3c0.7-0.1,1.5-0.3,2.2-0.4c0.7-0.2,1.4-0.4,2.1-0.7c0.6-0.2,1.1-0.5,1.7-0.2c0.8,0.5,0.4,1.3-0.3,2.2
			c-0.8,0.8-1.9,1.7-2.8,2.3c1.6-0.3,3.1-0.7,4.6-1.2c1.5-0.6,2.9-1.2,4.2-1.9c1.3-0.8,2.6-1.5,3.8-2.5c1.2-0.9,2.3-1.8,3.4-2.8
			c0.6-0.6,1.2-1.1,1.7-1.7c0.6-0.6,1.1-1.1,1.6-1.8c0.5-0.6,1-1.2,1.5-1.9c0.2-0.3,0.5-0.6,0.7-0.9c0.2-0.3,0.4-0.7,0.6-1
			c0.8-1.3,1.5-2.7,2-4.1c0.5-1.4,0.8-2.9,0.8-4.3c-1,1.3-2.2,2.6-3.5,3.7c-0.7,0.6-1.3,1.1-2,1.6c-0.7,0.5-1.4,1-2.2,1.4
			c-3,1.8-6.4,3.1-9.8,3.9c-1.5,0.4-3.1,0.7-4.7,0.9c-0.8,0.1-1.6,0.2-2.4,0.2c-0.8,0-1.6,0.1-2.5,0.1c-1.6-0.1-3.3-0.1-4.8-0.5
			c-0.8-0.2-1.6-0.3-2.3-0.5c-0.8-0.2-1.5-0.5-2.2-0.8c-0.6-0.3-1.2-0.5-1.8-0.9c-0.6-0.4-1.1-0.8-1.6-1.2c-0.4-0.4-1.3-1.1-1.4-1.7
			c0-0.5,0.4-0.9,0.9-0.7c0.2,0.1,0.4,0.4,0.6,0.6c0.4,0.4,0.8,0.8,1.2,1.1c0.2,0.2,0.4,0.3,0.7,0.5c0.2,0.1,0.5,0.3,0.7,0.4
			c1.5,0.8,3.1,1.4,4.8,1.7c0.8,0.2,1.7,0.3,2.6,0.4c0.9,0.1,1.7,0.1,2.6,0.1c3.4,0,6.8-0.4,10.1-1.3c3-0.8,5.9-2,8.5-3.4
			c2.6-1.6,5-3.4,6.9-5.8c-3,1-6.1,0.2-8.9-0.7c-0.9-0.3-1.9-0.7-2.8-0.9c-0.3-0.1-1-0.5-1.3-0.4c-0.2,0.1-0.1-0.1,0,0.2
			c0.1,0.2,0.3,0.4,0.4,0.5c0.9,1,1.9,1.8,3,2.5c0.3,0.2,0.9,0.5,1,1c0.2,0.8-1.7,1.2-3.7,1.2c-1,0-2.1-0.1-2.9-0.2
			c-0.9-0.1-1.5-0.2-1.8-0.3c-3.5-0.7-6.6-2.2-9.6-3.8c-0.3-0.2-1.9-1.3-2-1.1c-0.2,0.2,1.5,2.8,1.6,2.9c0.5,0.8,1.1,1.6,1.7,2.3
			c0.2,0.3,0.8,0.7,0.8,1.2c0.1,0.6-0.4,0.7-0.9,0.7c-0.5-0.1-1.1-0.4-1.3-0.5c-0.9-0.3-1.8-0.5-2.7-0.6c-0.9-0.2-1.8-0.3-2.7-0.5
			c-3.5-0.7-6.4-2-8.9-4.4c-0.7-0.6-1.3-1.3-2-2l-0.8-0.9c-0.1-0.1-0.8-1-0.9-1c-0.3,0.1-0.5,1.2-0.5,2.4c0,1.2,0,2.5,0.1,2.8
			c0.2,1.9,0.6,3.8,1.4,5.7c0.8,1.8,1.9,3.4,3.3,4.9c0.6,0.7,1.3,1.3,2.1,1.9c0.8,0.6,1.6,1.2,2.4,1.6c0.6,0.4,1.5,0.9,0.7,1.6
			c0,0,0,0,0,0l0,0c-0.7,0.3-1.3,0.5-2,0.6c-0.7,0.1-1.4,0.1-2.1,0.1c-0.7,0-1.4-0.1-2.1-0.3C282.4,367.2,281.7,366.9,281.1,366.7z"
			/>
	</g>
	<g>
		<path class="st5" d="M222,326.8c0.2-0.5,0.5-2.1,1.4-1.9c0.3,0.1,0.4,0.4,0.5,0.7c0.2,0.7,0.2,1.6,0.4,2.4
			c0.3,0.9,0.7,1.8,1.2,2.6c0.5,0.8,1.1,1.5,1.9,2.1c-0.1-0.8-0.1-1.5-0.1-2.2c0-0.7,0.1-1.5,0.1-2.2c0.1-0.7,0.2-1.4,0.3-2.1
			c0.2-0.7,0.4-1.4,0.6-2.1c0.5-1.3,1.1-2.6,1.8-3.8c0.8-1.2,1.6-2.3,2.6-3.3c1-1,2.2-1.9,3.4-2.7c0.6-0.4,2.7-1.9,3.5-1.7
			c0.8,0.2,0.1,2.1,0,2.7c-0.1,0.8-0.3,1.5-0.4,2.3c-0.1,0.8-0.2,1.6-0.3,2.4c0,0.8,0,1.6,0,2.4c0.1,0.8,0.2,1.5,0.4,2.3
			c0.3,1.5,1,2.9,1.7,4.4c0.3,0.6,0.7,1.2,1,1.8c0.3,0.6,0.6,1.2,0.9,1.9c0.2,0.5,0.1,0.6,0.3,0.1c0.1-0.4,0.2-0.8,0.3-1.2
			c0.2-0.5,0.3-1,0.5-1.6c0.1-0.4,0.7-1.6,1.4-2.6c0.7-1,1.4-1.6,1.7-0.8c0.2,0.6,0.2,1.7,0.3,2.4l0.3,2c0.3,1.4,0.5,2.8,0.9,4.3
			c0.4,1.5,0.9,3,1.7,4.5c0.4,0.7,0.7,1.4,1.2,2.1c0.5,0.7,0.9,1.3,1.5,1.9c0.1,0.2,0.8,1.1,1,1c0,0,0-0.8,0-0.9
			c0-0.7,0.1-1.5,0.2-2.2c0.1-0.8,0.3-2.8,1-3.3c0.6-0.5,1.1,0.2,1.4,1.1c0.4,0.9,0.7,2,0.8,2.3c0.2,0.5,0.3,1.1,0.5,1.6
			c0.2,0.5,0.4,1,0.6,1.6c0.4,1,0.9,2.1,1.4,3c0.6,1,1.4,2,2.3,2.7c1,0.7,2.1,1.3,3.3,1.3c1.1,0,2.1-0.7,3.1-0.8
			c0.2,0,0.3-0.1,0.5,0c0.3,0.2,0.5,0.7,0.4,1c-0.1,0.4-0.8,0.5-1.2,0.7c-0.7,0.3-1.5,0.3-2.2,0.6c-0.9,0.3-1.7,1.3-2.5,1.8
			c-0.5,0.4-1,0.7-1.5,1c-1.5,0.8-3.1,1.3-4.8,1.7c-1.7,0.3-3.5,0.5-5.2,0.6c-3.2,0-6.6-0.2-10-0.9c-0.8-0.2-1.7-0.4-2.5-0.6
			c-0.8-0.3-1.7-0.6-2.5-0.9c-1.7-0.6-3.3-1.4-4.8-2.3c-0.9-0.5-1.6-1-2.4-1.6c-0.8-0.6-1.6-1.2-2.3-1.9c-0.7-0.7-2-1.7-2.3-2.6
			c-0.2-0.7,0.2-1,0.8-1c0.7,0,1.8,0.6,2.5,0.9c0.7,0.2,1.4,0.4,2,0.6c-2.7-2-5.2-4.6-6.8-7.6c-0.4-0.7-0.8-1.5-1.2-2.3
			c-0.3-0.8-0.6-1.6-0.8-2.4c-0.1-0.4-0.2-0.8-0.3-1.2c-0.1-0.4-0.2-0.8-0.2-1.2c-0.1-0.8-0.2-1.6-0.2-2.4c0-0.4,0-0.7,0-1.1
			c0-0.4,0.1-0.7,0.1-1.1C221.6,328.1,221.8,327.4,222,326.8z M223,328.4c-0.3,1.4-0.3,2.9-0.2,4.4c0.1,0.8,0.3,1.5,0.5,2.2
			c0.2,0.7,0.5,1.5,0.8,2.2c0.6,1.5,1.4,2.9,2.4,4.2c0.5,0.6,1,1.3,1.5,1.9c0.3,0.3,0.5,0.6,0.8,0.9c0.3,0.3,0.6,0.6,0.9,0.8
			c1.1,1,2.3,1.9,3.6,2.7c0.5,0.3,1.1,0.5,1.2,1.2c0.1,0.9-0.8,1.1-1.9,1.1c-1.1-0.1-2.6-0.4-3.5-0.7c1.2,1.1,2.5,2,3.8,2.8
			c1.3,0.8,2.7,1.5,4.1,2.1c1.4,0.6,2.8,1,4.3,1.4c1.5,0.4,2.9,0.7,4.3,0.9c1.6,0.2,3.2,0.4,4.8,0.5c0.8,0,1.6,0,2.4,0
			c0.8,0,1.6-0.1,2.3-0.2c1.6-0.2,3-0.5,4.4-1c1.4-0.5,2.7-1.2,3.9-2c-1.7,0-3.4-0.1-5.1-0.4c-0.8-0.2-1.7-0.3-2.5-0.6
			c-0.8-0.2-1.7-0.5-2.5-0.8c-0.8-0.3-1.6-0.7-2.4-1c-0.8-0.4-1.6-0.8-2.3-1.2c-0.8-0.4-1.5-0.9-2.3-1.4c-0.7-0.5-1.4-1-2.1-1.6
			c-5.1-3.8-9.7-9.2-11.4-15.2c-0.4-1.3-0.5-2.7-0.5-4c0-0.6,0.1-1.8,0.5-2.1c0.4-0.3,0.9-0.3,1.1,0.3c0.1,0.2-0.1,0.6-0.1,0.8
			c-0.2,1.1-0.2,2.1,0,3.2c0.6,3.3,2.4,6.4,4.5,9.1l0.8,1c0.3,0.3,0.6,0.6,0.8,1c0.6,0.6,1.1,1.2,1.7,1.8c1.3,1.1,2.5,2.3,3.9,3.3
			c2.4,1.9,5.2,3.4,8,4.5c2.9,1.1,5.8,1.8,8.8,1.8c-2.6-1.7-4-4.7-5-7.4c-0.4-0.9-0.7-1.9-1-2.8c-0.1-0.3-0.2-1-0.5-1.2
			c-0.2-0.1,0-0.2-0.2,0.2c-0.1,0.2-0.1,0.5-0.1,0.7c-0.2,1.3-0.2,2.6-0.1,3.9c0,0.4,0.2,1-0.1,1.4c-0.3,0.3-0.8,0.2-1.3-0.3
			c-0.3-0.2-0.6-0.5-0.9-0.8c-0.2-0.2-0.3-0.3-0.5-0.5c-0.2-0.2-0.3-0.4-0.5-0.6c-0.6-0.8-1.2-1.6-1.7-2.4c-0.4-0.7-0.8-1.3-0.9-1.6
			c-0.8-1.5-1.4-3.2-1.9-4.9c-0.2-0.8-0.4-1.7-0.6-2.5l-0.3-1.2l-0.2-1.3c-0.1-0.4-0.2-2.2-0.4-2.3c-0.3,0-1.2,2.9-1.3,3.1
			c-0.3,0.9-0.5,1.9-0.7,2.8c-0.1,0.4-0.1,1-0.4,1.4c-0.9,0.9-1.3-1.1-1.5-1.6c-0.3-0.9-0.8-1.7-1.2-2.5c-0.4-0.8-0.9-1.6-1.3-2.4
			c-1.7-3.1-2.3-6.3-2.1-9.7c0.1-1,0.2-1.9,0.4-2.8c0.1-0.4,0.1-0.8,0.2-1.2c0-0.1,0.4-1.3,0.3-1.4c-0.2-0.2-1.2,0.4-2.2,1.1
			c-1,0.7-1.9,1.6-2.2,1.8c-0.7,0.7-1.4,1.4-2,2.2c-0.6,0.8-1.1,1.6-1.6,2.5c-0.5,0.9-0.8,1.8-1.2,2.7c-0.3,0.9-0.5,1.9-0.7,2.9
			c-0.3,1.9-0.3,3.8,0,5.8c0.1,0.7,0.2,1.7-0.8,1.5c0,0,0,0,0,0l0,0c-1.2-0.7-2.3-1.7-3.1-2.8C224,331.1,223.4,329.8,223,328.4z"/>
	</g>
	<g>
		<path class="st5" d="M217.3,257.3c0.5-0.2,2-0.9,2.3-0.1c0.1,0.3,0,0.5-0.2,0.8c-0.4,0.6-1.2,1.2-1.6,1.8c-0.6,0.8-1,1.6-1.3,2.5
			c-0.2,0.4-0.3,0.9-0.4,1.4c-0.1,0.5-0.1,0.9-0.1,1.4c1.1-1.1,2.3-2,3.5-2.7c0.6-0.4,1.2-0.7,1.9-1.1c0.7-0.3,1.3-0.6,2-0.8
			c1.3-0.5,2.7-0.8,4.1-0.9c1.4-0.1,2.8-0.1,4.2,0c1.4,0.2,2.8,0.5,4.2,1c0.7,0.2,3.2,0.9,3.5,1.7c0.3,0.8-1.6,1.4-2.1,1.6
			c-0.7,0.4-1.3,0.7-2,1.1c-0.7,0.4-1.4,0.8-2,1.3c-1.3,0.9-2.5,2-3.4,3.2c-0.2,0.3-0.5,0.6-0.7,0.9l-0.3,0.5l-0.3,0.5
			c-0.4,0.7-0.7,1.4-1.1,2.1c-0.3,0.6-0.5,1.3-0.8,1.9c-0.3,0.6-0.6,1.3-0.9,1.9c-0.2,0.5-0.4,0.5,0.1,0.3c0.4-0.1,0.7-0.3,1.1-0.5
			c0.5-0.2,1-0.4,1.6-0.6c0.4-0.1,1.7-0.5,2.9-0.6c1.2-0.1,2.1,0.1,1.7,0.9c-0.2,0.3-0.5,0.6-0.8,0.9c-0.3,0.3-0.6,0.6-0.9,0.8
			l-1.3,1.4c-0.5,0.5-1,1.1-1.4,1.6c-0.5,0.6-0.9,1.1-1.4,1.7c-0.5,0.6-0.9,1.3-1.3,2c-0.4,0.7-0.8,1.4-1.1,2.1
			c-0.6,1.5-1.2,3-1.5,4.6c0,0.2-0.3,1.3-0.1,1.4c0,0,0.6-0.5,0.7-0.6c0.6-0.5,1.2-0.9,1.9-1.3c0.7-0.4,2.3-1.5,3.2-1.3
			c0.7,0.2,0.5,1,0,1.8c-0.2,0.4-0.5,0.9-0.8,1.3c-0.2,0.4-0.4,0.7-0.5,0.8c-0.6,0.9-1.2,1.8-1.8,2.8c-0.5,1-1,2-1.5,3
			c-0.8,2.1-1.1,4.9,0.4,6.9c0.6,0.9,1.9,1.2,2.6,1.9c0.1,0.1,0.2,0.2,0.3,0.4c0.1,0.3-0.2,0.8-0.5,1c-0.4,0.2-0.9-0.3-1.2-0.5
			c-0.6-0.4-1.2-0.9-1.8-1.3c-0.8-0.5-2-0.5-3-0.8c-0.6-0.2-1.2-0.4-1.7-0.6c-0.8-0.3-1.5-0.7-2.2-1.2c-0.7-0.4-1.4-0.9-2.1-1.5
			c-1.4-1.1-2.6-2.4-3.7-3.7c-2.1-2.5-4-5.3-5.5-8.4c-0.4-0.8-0.7-1.6-1.1-2.4c-0.3-0.8-0.6-1.6-0.9-2.5c-0.5-1.7-0.9-3.4-1.2-5.2
			c-0.1-1-0.2-1.9-0.2-2.9c0-0.5,0-1,0-1.5c0-0.5,0.1-1,0.1-1.5c0.1-1,0-2.7,0.6-3.5c0.4-0.6,0.9-0.5,1.3,0c0.4,0.6,0.6,1.8,0.9,2.5
			c0.3,0.7,0.5,1.3,0.9,2c0-1.7,0-3.4,0.3-5.1c0.1-0.9,0.3-1.7,0.5-2.5c0.2-0.8,0.5-1.7,0.8-2.5c1.2-3.2,3.2-6,5.7-8
			c0.6-0.5,1.2-0.9,1.8-1.2C216,257.9,216.7,257.6,217.3,257.3z M216.6,259.1c-1.3,0.6-2.5,1.5-3.5,2.6c-0.3,0.3-0.5,0.5-0.8,0.8
			c-0.2,0.3-0.5,0.6-0.7,0.9c-0.4,0.6-0.9,1.3-1.3,2c-0.8,1.4-1.3,2.9-1.8,4.5c-0.4,1.6-0.7,3.2-0.8,4.8c-0.1,1.5-0.1,3,0.1,4.4
			c0.1,0.6,0.3,1.2-0.2,1.7c-0.6,0.6-1.4,0.1-2-0.8c-0.3-0.5-0.7-1-0.9-1.6c-0.3-0.6-0.5-1.1-0.7-1.6c-0.2,3.2,0.2,6.3,1.1,9.2
			c0.4,1.5,1,2.9,1.6,4.2c0.6,1.4,1.3,2.7,2,3.9c0.8,1.4,1.7,2.8,2.6,4.1c0.9,1.3,2,2.5,3.1,3.6c1.1,1.1,2.3,2.1,3.5,2.8
			c0.6,0.4,1.3,0.7,1.9,1c0.7,0.3,1.4,0.5,2.1,0.7c-4.5-5.1-6.4-12.4-6.5-19.4c0-3.2,0.2-6.5,1-9.7c0.3-1.6,0.9-3.1,1.5-4.6
			c0.3-0.7,0.7-1.4,1.1-2.1c0.4-0.7,0.8-1.3,1.2-2c0.8-1.1,1.7-2.1,2.8-2.8c0.5-0.3,1.4-1,2-0.9c0.5,0.1,0.8,0.6,0.5,1
			c-0.2,0.2-0.5,0.3-0.7,0.4c-0.9,0.5-1.8,1.2-2.5,2c-0.3,0.3-0.6,0.6-0.8,1c-0.2,0.3-0.5,0.7-0.7,1.1c-0.4,0.7-0.9,1.5-1.2,2.3
			c-0.6,1.6-1.2,3.3-1.6,4.9c-0.9,3.3-1.1,6.7-1,10.1c0.2,6.1,1.9,12.4,5.5,17.1c-0.1-0.8,0-1.5,0.1-2.3c0.1-0.4,0.1-0.7,0.2-1.1
			c0.1-0.4,0.2-0.7,0.4-1.1c0.5-1.4,1.2-2.8,2-4l1.5-2.5c0.2-0.3,0.7-0.8,0.7-1.2c0-0.2,0.1-0.1-0.2,0c-0.2,0.1-0.4,0.2-0.6,0.3
			c-1.2,0.7-2.2,1.5-3.2,2.4c-0.3,0.3-0.7,0.8-1.1,0.8c-0.4,0-0.6-0.5-0.7-1.2c0-0.7,0.1-1.7,0.3-2.7c0.1-0.5,0.2-1,0.4-1.5
			c0.2-0.5,0.3-0.9,0.4-1.3c0.3-0.8,0.5-1.4,0.6-1.7c1.5-3.2,3.6-6,5.9-8.5c0.3-0.3,1.6-1.5,1.5-1.7c-0.1-0.1-0.9,0.1-1.6,0.3
			c-0.8,0.2-1.5,0.6-1.6,0.6c-0.9,0.4-1.7,0.8-2.6,1.2c-0.3,0.2-0.9,0.6-1.3,0.5c-1.3-0.1,0.1-1.7,0.3-2.1c0.2-0.4,0.4-0.8,0.6-1.2
			c0.2-0.4,0.4-0.8,0.6-1.2c0.4-0.8,0.7-1.7,1.1-2.5c0.4-0.8,0.7-1.6,1.2-2.3c0.5-0.7,0.9-1.4,1.4-2c0.5-0.6,1.1-1.2,1.7-1.8
			c0.6-0.6,1.3-1.1,2-1.6c0.8-0.5,1.6-1,2.4-1.5c0.3-0.2,0.7-0.4,1-0.6c0.1-0.1,1.2-0.5,1.2-0.6c0-0.3-1.1-0.7-2.2-1
			c-1.2-0.3-2.4-0.5-2.8-0.6c-1-0.1-2-0.2-2.9-0.2c-1,0-1.9,0.1-2.9,0.3c-1,0.2-1.9,0.4-2.9,0.8c-0.9,0.3-1.8,0.8-2.7,1.3
			c-0.8,0.5-1.6,1-2.4,1.6c-0.7,0.6-1.4,1.3-2.1,2c-0.5,0.5-1.2,1.3-1.7,0.3c0,0,0,0,0,0l0,0c-0.2-1.4-0.1-2.8,0.2-4.2
			C215.2,261.6,215.8,260.3,216.6,259.1z"/>
	</g>
	<g>
		<path class="st5" d="M268.7,210.4c0.5,0.3,2,1,1.5,1.8c-0.2,0.3-0.4,0.3-0.8,0.3c-0.8,0-1.6-0.2-2.4-0.1c-1,0.1-1.9,0.2-2.8,0.5
			c-0.9,0.3-1.7,0.8-2.5,1.4c1.5,0.2,2.9,0.5,4.3,1c1.4,0.5,2.7,1.1,3.9,1.9c1.2,0.8,2.3,1.7,3.3,2.6c1,1,1.8,2.1,2.6,3.3
			c0.8,1.2,1.4,2.5,1.9,3.9c0.3,0.7,1.3,3.1,0.9,3.8c-0.2,0.4-0.7,0.3-1.2,0c-0.5-0.2-1.1-0.5-1.3-0.7l-2.2-0.9
			c-0.7-0.3-1.5-0.5-2.2-0.8c-1.6-0.5-3.1-0.6-4.6-0.7c-0.8,0-1.5,0.1-2.3,0.2c-0.4,0.1-0.8,0.1-1.2,0.2c-0.4,0.1-0.8,0.2-1.2,0.3
			c-0.7,0.2-1.3,0.4-2,0.5c-0.7,0.2-1.3,0.4-2,0.5c-0.6,0.1-0.6,0-0.2,0.3c0.3,0.2,0.7,0.4,1.1,0.6c0.5,0.3,1,0.6,1.4,0.9
			c0.3,0.2,1.4,1,2.2,1.9c0.8,0.9,1.3,1.7,0.4,1.9c-0.6,0.1-1.6-0.2-2.4-0.2l-1-0.1l-1-0.1c-0.7,0-1.4-0.1-2.2-0.1
			c-0.7,0-1.4,0-2.2,0c-3.2,0.1-6.4,0.8-9.3,2.4c-0.2,0.1-1.2,0.6-1.2,0.8c0,0,0.8,0.2,0.9,0.2c0.7,0.2,1.4,0.4,2.1,0.6
			c0.7,0.3,2.6,0.9,3,1.7c0.2,0.3,0.1,0.6-0.2,0.8c-0.3,0.2-0.7,0.3-1.2,0.4c-1,0.2-2.1,0.2-2.5,0.2c-1.1,0.1-2.2,0.2-3.3,0.4
			c-0.6,0.1-1.1,0.2-1.6,0.3c-0.5,0.1-1.1,0.3-1.6,0.4c-1.1,0.3-2.2,0.9-3.2,1.7c-1,0.7-1.7,1.8-2,2.9c-0.3,1.1,0.2,2.2,0.1,3.2
			c0,0.2,0,0.3-0.2,0.5c-0.2,0.3-0.8,0.4-1.1,0.2c-0.4-0.2-0.3-0.9-0.4-1.3c-0.1-0.7,0-1.5-0.1-2.3c-0.1-1-0.9-1.9-1.2-2.8
			c-0.2-0.6-0.4-1.1-0.6-1.7c-0.9-3.2-0.7-6.8,0-10.3c0.3-1.6,0.8-3.1,1.2-4.8c0.5-1.6,1.2-3.2,1.9-4.8c1.5-3.1,3.4-6.2,5.9-8.8
			c0.7-0.7,1.4-1.4,2.1-2c0.8-0.6,1.5-1.2,2.4-1.8c0.8-0.6,2.1-1.6,3.1-1.6c0.7,0,1,0.4,0.8,1c-0.2,0.7-1,1.6-1.4,2.2
			c-0.4,0.6-0.7,1.3-1,1.9c0.3-0.3,0.6-0.6,1-0.8c0.3-0.3,0.7-0.5,1-0.8c0.7-0.5,1.4-1,2.2-1.4c0.7-0.4,1.5-0.8,2.3-1.1
			c0.8-0.3,1.6-0.7,2.4-0.9c1.7-0.5,3.3-0.9,5-0.9c1.7-0.1,3.3,0,4.8,0.4C266.2,209.2,267.5,209.6,268.7,210.4z M266.9,211
			c-0.7-0.3-1.3-0.6-2.1-0.7c-0.7-0.2-1.5-0.3-2.2-0.4c-0.7-0.1-1.5-0.1-2.3-0.1c-0.4,0-0.8,0-1.2,0.1c-0.4,0-0.8,0.1-1.2,0.2
			c-1.6,0.3-3.1,0.7-4.6,1.4c-0.7,0.3-1.5,0.7-2.2,1c-0.7,0.4-1.4,0.8-2,1.3c-1.2,0.8-2.4,1.8-3.4,2.9c-0.4,0.5-0.8,0.9-1.4,0.9
			c-0.9-0.1-1-1-0.6-2.1c0.3-1.1,1-2.4,1.5-3.3c-1.3,0.9-2.5,1.9-3.6,3.1c-1.1,1.1-2.1,2.3-2.9,3.5c-0.4,0.6-0.9,1.3-1.3,1.9
			c-0.4,0.6-0.7,1.3-1.1,2c-0.3,0.7-0.7,1.3-1,2c-0.3,0.7-0.6,1.4-0.8,2c-0.3,0.8-0.6,1.5-0.8,2.3c-0.3,0.8-0.5,1.5-0.7,2.3
			c-0.2,0.8-0.4,1.5-0.6,2.3c-0.1,0.8-0.3,1.6-0.3,2.3c-0.1,0.8-0.1,1.5-0.1,2.3c0,0.8,0,1.5,0.1,2.3c0.2,1.5,0.5,2.9,1.1,4.2
			c0.1-0.8,0.4-1.6,0.6-2.5c0.3-0.8,0.5-1.6,0.9-2.4c0.7-1.6,1.5-3.1,2.5-4.6c0.9-1.5,2.1-2.8,3.3-4.2c0.6-0.6,1.2-1.3,1.9-1.9
			c0.3-0.3,0.6-0.6,1-0.9l1-0.8c0.6-0.5,1.2-1,1.9-1.5c0.7-0.5,1.3-0.9,2-1.4c0.3-0.2,0.7-0.5,1-0.7l1.1-0.6
			c0.7-0.4,1.4-0.8,2.2-1.1c0.7-0.3,1.5-0.6,2.3-0.9c0.4-0.1,0.8-0.3,1.1-0.4c0.4-0.1,0.8-0.2,1.2-0.3c0.8-0.2,1.5-0.4,2.3-0.5
			c0.8-0.1,1.6-0.2,2.3-0.2c1.3-0.1,2.7,0,4,0.4c0.5,0.2,1.7,0.4,2,1c0.2,0.4,0,1-0.5,1c-0.3,0-0.5-0.2-0.8-0.3
			c-1-0.4-2.1-0.7-3.2-0.7c-3.3-0.2-6.8,1-9.9,2.4c-0.8,0.4-1.5,0.8-2.3,1.2l-1.1,0.6l-1.1,0.7c-0.7,0.5-1.4,0.9-2.1,1.5
			c-0.7,0.5-1.3,1.1-2,1.6c-4.7,4-8.5,9.3-9.9,15c1.1-1.1,2.5-1.8,3.9-2.3c0.7-0.2,1.5-0.4,2.2-0.6c0.8-0.1,1.5-0.3,2.2-0.4
			c1-0.1,1.9-0.3,2.9-0.4c0.3,0,1.1,0,1.3-0.2c0.2-0.1,0.2,0-0.1-0.2c-0.2-0.1-0.4-0.2-0.6-0.3c-1.2-0.5-2.5-0.8-3.8-1
			c-0.4-0.1-1,0-1.3-0.4c-0.2-0.3,0-0.8,0.5-1.3c0.6-0.5,1.4-1,2.3-1.4c0.9-0.4,1.9-0.8,2.7-1.1c0.4-0.1,0.8-0.3,1.1-0.4
			c0.3-0.1,0.5-0.1,0.7-0.2c0.9-0.2,1.7-0.4,2.6-0.5c0.9-0.1,1.7-0.2,2.6-0.2l1.3-0.1c0.4,0,0.9,0,1.3,0c0.9,0,1.7,0.1,2.5,0.1
			c0.4,0,2.2,0.4,2.3,0.1c0.1-0.3-2.6-1.9-2.7-2c-0.8-0.5-1.7-0.9-2.6-1.3c-0.3-0.2-1-0.3-1.2-0.7c-0.7-1.1,1.4-1.1,1.8-1.1
			c0.9-0.1,1.8-0.3,2.7-0.6c0.9-0.2,1.8-0.5,2.6-0.7c0.8-0.3,1.7-0.4,2.5-0.5c0.8-0.1,1.6-0.2,2.5-0.2c0.8,0,1.6,0.1,2.5,0.2
			c0.8,0.2,1.6,0.4,2.5,0.6c0.4,0.1,0.9,0.3,1.3,0.5l1.3,0.5l1.1,0.5c0.1,0.1,1.1,0.6,1.3,0.5c0.3-0.2-0.1-1.3-0.6-2.4
			c-0.5-1.1-1.1-2.2-1.3-2.5c-1-1.7-2.2-3.2-3.7-4.5c-1.5-1.3-3.2-2.3-5.1-3.1c-0.9-0.4-1.8-0.6-2.7-0.8c-0.9-0.2-1.9-0.4-2.9-0.4
			c-0.7,0-1.7-0.2-1.3-1.1c0,0,0,0,0,0l0,0c0.9-1.1,2.1-1.9,3.4-2.4C264,211.4,265.5,211.1,266.9,211z"/>
	</g>
	<g>
		<path class="st5" d="M337.4,221.4c0.1,0.6,0.4,2.2-0.5,2.3c-0.3,0-0.5-0.2-0.7-0.4c-0.3-0.3-0.5-0.6-0.7-1c-0.2-0.3-0.4-0.7-0.7-1
			c-0.6-0.7-1.4-1.3-2.2-1.9c-0.8-0.5-1.7-0.9-2.6-1.1c0.4,0.7,0.7,1.3,1.1,2c0.3,0.7,0.6,1.3,0.8,2c0.5,1.4,0.8,2.8,1,4.2
			c0.3,2.9,0,5.6-1,8.3c-0.5,1.4-1.1,2.7-1.9,3.9c-0.4,0.7-1.6,2.9-2.4,3c-0.8,0.1-0.9-1.9-1.1-2.4l-0.6-2.3
			c-0.2-0.8-0.5-1.5-0.8-2.2c-0.6-1.6-1.4-2.8-2.4-4c-0.5-0.6-1-1.1-1.6-1.7c-0.3-0.3-0.6-0.5-0.9-0.8c-0.3-0.3-0.6-0.5-1-0.7
			c-0.6-0.4-1.1-0.8-1.6-1.3c-0.6-0.4-1.1-0.8-1.6-1.3c-0.4-0.4-0.4-0.5-0.3,0.1c0,0.4,0.2,0.8,0.2,1.2c0.1,0.5,0.2,1.1,0.2,1.6
			c0,0.4,0.1,1.8-0.1,2.9c-0.2,1.2-0.5,2-1.2,1.4c-0.5-0.4-0.9-1.4-1.3-2l-0.5-0.8l-0.6-0.8c-0.8-1.2-1.7-2.4-2.7-3.4
			c-0.5-0.6-1.1-1.2-1.6-1.7c-0.6-0.5-1.2-1.1-1.8-1.6c-0.3-0.2-0.6-0.5-1-0.7c-0.3-0.2-0.7-0.4-1-0.6c-0.7-0.4-1.4-0.8-2.2-1.1
			c-0.2-0.1-1.2-0.6-1.3-0.4c0,0,0.3,0.7,0.4,0.8c0.3,0.7,0.6,1.4,0.8,2.1c0.2,0.8,0.9,2.6,0.5,3.4c-0.3,0.7-1,0.2-1.8-0.4
			c-0.7-0.6-1.5-1.5-1.7-1.7l-0.6-0.6l-0.6-0.6c-0.4-0.4-0.8-0.8-1.2-1.1c-0.4-0.4-0.8-0.8-1.3-1.1c-0.4-0.4-0.9-0.7-1.4-1
			c-1.9-1.3-4.6-2.2-6.8-1.2c-1,0.5-1.6,1.5-2.4,2.1c-0.2,0.1-0.3,0.2-0.5,0.2c-0.3,0-0.8-0.4-0.8-0.7c-0.1-0.5,0.5-0.8,0.8-1.1
			c0.5-0.5,1.2-0.9,1.7-1.5c0.7-0.7,0.9-1.9,1.4-2.7c0.3-0.5,0.6-1.1,1-1.5c1-1.3,2.2-2.5,3.5-3.6c1.4-1,2.9-2,4.5-2.8
			c1.4-0.7,2.9-1.4,4.5-2c0.8-0.3,1.6-0.6,2.4-0.8c0.8-0.3,1.7-0.5,2.5-0.7c1.7-0.4,3.4-0.7,5.2-0.8c0.9-0.1,1.8-0.1,2.7-0.1
			c0.9,0,1.8,0.1,2.7,0.1c1.9,0.1,3.9,0.6,5.8,1.1c1,0.3,2.6,0.7,3.2,1.4c0.5,0.5,0.3,1-0.3,1.2c-0.7,0.3-1.9,0.2-2.7,0.3
			c-0.7,0.1-1.4,0.2-2.1,0.4c0.4,0.1,0.8,0.2,1.2,0.2c0.4,0.1,0.8,0.2,1.2,0.3c0.8,0.2,1.6,0.5,2.4,0.8c0.8,0.3,1.6,0.7,2.3,1.1
			c0.8,0.4,1.5,0.8,2.2,1.3c1.4,1,2.7,2.1,3.8,3.3c0.5,0.6,1.1,1.3,1.5,1.9c0.5,0.7,0.8,1.4,1.2,2.1
			C336.8,218.6,337.3,219.9,337.4,221.4z M335.8,220.3c-0.4-1.4-0.9-2.8-1.8-4.1c-0.4-0.6-0.9-1.2-1.4-1.8c-0.5-0.6-1.1-1.2-1.7-1.7
			c-1.2-1-2.5-2-4-2.7c-0.7-0.4-1.4-0.7-2.2-1.1c-0.8-0.3-1.5-0.6-2.3-0.8c-0.7-0.2-1.4-0.4-2.2-0.6c-0.7-0.1-1.5-0.2-2.2-0.3
			c-0.6-0.1-1.2,0-1.6-0.6c-0.5-0.7,0.2-1.4,1.2-1.8c1.1-0.4,2.5-0.7,3.5-0.8c-3.1-0.9-6.2-1.2-9.2-1c-3,0.2-6,0.8-8.8,1.7
			c-3.1,1-6.1,2.2-8.7,3.9c-1.3,0.9-2.5,1.7-3.6,2.8c-1,1.1-1.9,2.2-2.6,3.5c6-3.1,13.5-3.5,20.4-2c3.1,0.6,6.3,1.7,9.2,3.1
			c1.4,0.8,2.9,1.5,4.1,2.5c0.6,0.5,1.3,1,1.9,1.5c0.6,0.5,1.1,1.1,1.6,1.7c0.9,1,1.6,2.2,2.1,3.4c0.2,0.5,0.7,1.6,0.5,2.1
			c-0.2,0.5-0.7,0.6-1.1,0.2c-0.2-0.2-0.2-0.5-0.2-0.8c-0.3-1-0.7-2-1.4-2.9c-1.9-2.7-5-4.7-8-6.3c-0.7-0.4-1.5-0.7-2.3-1l-1.2-0.5
			c-0.4-0.2-0.8-0.3-1.2-0.4c-0.8-0.3-1.6-0.5-2.4-0.7c-0.8-0.2-1.7-0.4-2.5-0.5l-1.1-0.2c-0.4-0.1-0.8-0.1-1.1-0.1
			c-0.8-0.1-1.5-0.2-2.3-0.2c-0.8-0.1-1.5-0.1-2.3-0.1c-0.8,0-1.5,0-2.3,0.1c-0.8,0.1-1.5,0.2-2.3,0.3c-0.4,0.1-0.7,0.1-1.1,0.2
			c-0.4,0.1-0.7,0.2-1.1,0.3c-0.7,0.2-1.4,0.4-2.2,0.6c-0.7,0.2-1.4,0.5-2.1,0.8c1.5,0.2,3,0.9,4.2,1.7c0.3,0.2,0.6,0.4,0.9,0.6
			c0.3,0.2,0.6,0.5,0.9,0.7c0.6,0.5,1.1,1,1.7,1.5c0.7,0.6,1.4,1.4,2.1,2.1c0.2,0.2,0.7,0.8,1,0.9c0.2,0,0.1,0.1,0.1-0.2
			c0-0.2-0.1-0.5-0.2-0.6c-0.4-1.3-1-2.4-1.6-3.6c-0.2-0.4-0.6-0.8-0.5-1.3c0.2-0.8,2-0.3,3.9,0.5c0.9,0.5,1.8,1,2.5,1.4
			c0.7,0.4,1.3,0.9,1.5,1c0.7,0.5,1.4,1.1,2,1.7c0.6,0.6,1.2,1.2,1.8,1.9c0.3,0.3,0.6,0.6,0.8,1l0.8,1c0.5,0.7,1,1.4,1.5,2
			c0.2,0.3,1.1,2,1.4,1.9c0.3-0.1-0.1-3.2-0.2-3.4c-0.1-0.5-0.2-1-0.3-1.4l-0.3-1.4c-0.1-0.4-0.4-1-0.2-1.4c0.4-1.2,1.7,0.4,2,0.7
			c0.7,0.7,1.4,1.2,2.1,1.7c0.7,0.6,1.5,1.1,2.2,1.6c0.4,0.2,0.7,0.5,1,0.8c0.3,0.3,0.6,0.6,0.9,0.9c0.3,0.3,0.6,0.6,0.9,0.9
			c0.3,0.3,0.5,0.6,0.8,1c0.5,0.7,1,1.3,1.4,2c0.4,0.7,0.7,1.5,1.1,2.3c0.3,0.9,0.6,1.8,0.9,2.7l0.3,1.1c0,0.1,0.2,1.3,0.4,1.3
			c0.3,0.1,0.9-0.9,1.5-1.9c0.6-1.1,1-2.3,1.2-2.6c0.7-1.8,1.1-3.7,1.2-5.7c0-0.5,0-1,0-1.5c0-0.5-0.1-1-0.1-1.5
			c-0.1-1-0.3-2-0.6-2.9c-0.3-0.9-0.6-1.8-1.1-2.6c-0.4-0.9-0.9-1.7-1.5-2.5c-0.4-0.6-1-1.5,0-1.7c0,0,0,0,0,0l0,0
			c1.4,0.1,2.8,0.5,4,1.1C333.8,218.3,334.8,219.2,335.8,220.3z"/>
	</g>
	<g>
		<path class="st5" d="M371.7,281.9c-0.4,0.4-1.4,1.7-2.1,1.1c-0.2-0.2-0.2-0.5-0.2-0.8c0.1-0.8,0.5-1.5,0.7-2.3
			c0.2-0.9,0.2-1.9,0.1-2.8c-0.1-0.9-0.3-1.9-0.7-2.7c-0.1,0.4-0.3,0.7-0.4,1c-0.2,0.3-0.3,0.7-0.5,1c-0.3,0.7-0.7,1.3-1.1,1.9
			c-0.7,1.2-1.7,2.4-2.7,3.4c-2,2-4.4,3.5-7.1,4.4c-1.4,0.5-2.8,0.8-4.2,1c-0.8,0.1-3.3,0.5-3.9,0c-0.7-0.6,0.8-1.9,1.2-2.4
			c0.5-0.6,0.9-1.3,1.3-1.9c0.4-0.7,0.9-1.3,1.3-2c0.4-0.7,0.7-1.4,1-2.2c0.1-0.4,0.3-0.7,0.4-1.1c0.1-0.4,0.2-0.7,0.3-1.1
			c0.2-0.8,0.3-1.5,0.3-2.3c0-0.8,0.1-1.6,0-2.4c0-0.7,0-1.4-0.1-2.1c0-0.7,0-1.4,0-2.1c0-0.6,0.1-0.6-0.3-0.2
			c-0.3,0.3-0.5,0.6-0.8,0.9c-0.4,0.4-0.8,0.8-1.2,1.2c-0.3,0.3-1.4,1.2-2.4,1.7c-1,0.6-1.9,0.8-1.9-0.1c0-0.6,0.6-1.6,0.8-2.2
			l0.6-1.9c0.5-1.4,0.7-2.8,1-4.2c0.2-0.8,0.2-1.6,0.3-2.3c0.1-0.8,0.1-1.6,0.1-2.4c0-1.6-0.2-3.2-0.7-4.8c-0.1-0.2-0.3-1.3-0.5-1.3
			c0,0-0.3,0.7-0.4,0.8c-0.3,0.7-0.7,1.3-1.1,2c-0.4,0.7-1.5,2.3-2.3,2.5c-0.7,0.2-0.9-0.7-0.8-1.6c0.1-1,0.3-2.1,0.3-2.4
			c0.1-1.1,0.3-2.2,0.4-3.3c0.1-1.1,0.1-2.2,0-3.4c-0.1-1.1-0.4-2.3-0.9-3.4c-0.6-1.1-1.3-2-2.4-2.6c-1-0.5-2.2-0.3-3.2-0.6
			c-0.2-0.1-0.3-0.1-0.4-0.3c-0.2-0.3-0.2-0.8,0.1-1.1c0.3-0.3,1-0.2,1.3-0.1c0.7,0.1,1.5,0.4,2.2,0.4c1,0.1,2.1-0.4,3-0.6
			c0.6-0.1,1.2-0.2,1.8-0.2c1.7-0.1,3.4,0.1,5,0.5c0.8,0.2,1.7,0.5,2.5,0.7c0.8,0.3,1.6,0.6,2.5,1c0.7,0.3,1.5,0.7,2.2,1.1
			c0.7,0.4,1.4,0.8,2.2,1.2c1.5,0.8,2.9,1.8,4.2,2.9c0.3,0.3,0.7,0.5,1,0.8c0.3,0.3,0.7,0.6,1,0.9c0.6,0.6,1.3,1.2,1.9,1.9
			c0.6,0.6,1.2,1.3,1.7,2c0.6,0.7,1.1,1.4,1.6,2.2c1,1.6,2,3.4,2.7,5.2c0.3,0.9,1.1,2.4,0.9,3.4c-0.1,0.7-0.6,0.9-1.1,0.6
			c-0.3-0.2-0.6-0.5-1-0.9c-0.3-0.4-0.6-0.7-0.9-1c-0.5-0.5-1.1-1-1.6-1.4c0.4,0.7,0.8,1.5,1.1,2.3c0.3,0.8,0.6,1.6,0.8,2.4
			c0.2,0.8,0.5,1.7,0.6,2.5c0.1,0.9,0.3,1.7,0.3,2.6c0,0.4,0.1,0.9,0.1,1.3c0,0.4,0,0.9,0,1.3c0,0.8-0.1,1.7-0.3,2.5
			c-0.3,1.6-0.8,3.2-1.4,4.6C373.6,279.7,372.7,280.9,371.7,281.9z M371.6,280c0.9-1.2,1.6-2.5,2.1-3.9c0.5-1.4,0.7-3,0.8-4.6
			c0-0.4,0-0.8,0-1.2c0-0.4,0-0.8-0.1-1.2c-0.1-0.8-0.2-1.6-0.3-2.4c-0.3-1.6-0.8-3.2-1.3-4.6c-0.6-1.4-1.3-2.7-2.1-3.9
			c-0.4-0.5-0.8-0.9-0.6-1.6c0.3-0.8,1.2-0.7,2.2-0.2c0.5,0.3,1.1,0.6,1.5,1c0.5,0.4,0.9,0.8,1.3,1.2c-0.6-1.5-1.3-2.9-2.2-4.2
			c-0.8-1.3-1.8-2.5-2.8-3.7c-2-2.3-4.4-4.2-6.8-5.8c-0.3-0.2-0.7-0.4-1-0.7c-0.3-0.2-0.7-0.4-1-0.6c-0.7-0.4-1.4-0.8-2.1-1.2
			c-1.4-0.8-2.9-1.4-4.3-1.9c-1.5-0.5-3-0.8-4.4-1c-1.5-0.2-3-0.1-4.4,0.1c3.1,1.3,5.9,3.5,8.3,6c2.4,2.5,4.4,5.5,6,8.7
			c0.3,0.7,0.7,1.4,1,2.2c0.2,0.4,0.3,0.7,0.5,1.1c0.1,0.4,0.3,0.8,0.4,1.1c0.3,0.8,0.5,1.5,0.8,2.3c0.2,0.8,0.4,1.6,0.6,2.4
			l0.3,1.2c0.1,0.4,0.1,0.8,0.2,1.2c0.1,0.8,0.2,1.6,0.2,2.4c0,0.8,0,1.6,0,2.4c-0.1,0.8-0.1,1.6-0.3,2.3c-0.3,1.3-0.6,2.6-1.3,3.8
			c-0.3,0.5-0.8,1.6-1.4,1.7c-0.5,0.1-0.9-0.2-0.9-0.7c0-0.3,0.3-0.5,0.5-0.7c0.7-0.9,1.1-1.8,1.4-2.9c0.5-1.6,0.6-3.3,0.6-5
			c0-0.9-0.1-1.7-0.2-2.6c-0.1-0.4-0.1-0.9-0.2-1.3c-0.1-0.4-0.2-0.8-0.3-1.3c-0.2-0.8-0.4-1.6-0.6-2.5c-0.3-0.8-0.5-1.6-0.8-2.4
			c-0.3-0.8-0.6-1.6-1-2.4c-0.4-0.8-0.7-1.6-1.1-2.3c-2.9-5.4-7.1-10.3-12.4-13c0.4,0.7,0.7,1.4,0.9,2.1c0.2,0.7,0.4,1.5,0.4,2.2
			c0.1,0.8,0.1,1.5,0.1,2.3c0,0.8-0.1,1.5-0.1,2.2c-0.1,1-0.2,2-0.3,2.9c0,0.3-0.3,1.1-0.1,1.3c0.1,0.2-0.1,0.2,0.2-0.1
			c0.2-0.1,0.3-0.4,0.4-0.5c0.8-1.1,1.3-2.3,1.8-3.5c0.2-0.4,0.3-1,0.7-1.2c0.8-0.3,1.6,1.4,2,3.4c0.1,0.5,0.2,1,0.3,1.5
			c0.1,0.5,0.1,1,0.2,1.4c0.1,0.9,0.1,1.5,0.1,1.8c0,0.9,0,1.8-0.1,2.6c-0.1,0.9-0.2,1.7-0.3,2.6c-0.2,0.9-0.3,1.7-0.5,2.5
			c-0.2,0.8-0.5,1.6-0.7,2.4c-0.1,0.2-0.2,0.7-0.4,1.2c-0.2,0.5-0.3,1-0.2,1c0.1,0.1,0.7-0.4,1.3-1c0.6-0.6,1.1-1.2,1.2-1.2
			c0.6-0.7,1.2-1.5,1.8-2.2c0.2-0.3,0.6-0.9,1-1c1.2-0.4,0.7,1.6,0.7,2c0,0.9-0.1,1.9,0,2.8c0,0.5,0,0.9,0.1,1.4l0,1.4
			c0.2,3.5-0.6,6.7-2.4,9.6c-0.5,0.8-1,1.6-1.5,2.4c-0.2,0.3-0.5,0.7-0.7,1c-0.1,0.1-0.9,1-0.8,1.1c0.1,0.3,1.3,0.2,2.4-0.1
			c1.2-0.2,2.4-0.6,2.7-0.7c0.9-0.3,1.8-0.7,2.7-1.1c0.9-0.4,1.7-0.9,2.5-1.5c1.6-1.2,3-2.6,4.1-4.3c0.5-0.8,1-1.6,1.4-2.5
			c0.4-0.9,0.7-1.8,1-2.7c0.2-0.7,0.6-1.7,1.4-1c0,0,0,0,0,0l0,0c0.4,0.6,0.7,1.2,1,1.9c0.3,0.6,0.5,1.3,0.6,2
			c0.1,0.7,0.2,1.4,0.2,2.1c0,0.4,0,0.7,0,1.1C371.7,279.2,371.6,279.6,371.6,280z"/>
	</g>
</g>
</svg>
