<?xml version="1.0" encoding="utf-8"?>
<!-- Generator: Adobe Illustrator 14.0.0, SVG Export Plug-In . SVG Version: 6.00 Build 43363)  -->
<!DOCTYPE svg PUBLIC "-//W3C//DTD SVG 1.1//EN" "http://www.w3.org/Graphics/SVG/1.1/DTD/svg11.dtd">
<svg version="1.1" id="Layer_1" xmlns="http://www.w3.org/2000/svg" xmlns:xlink="http://www.w3.org/1999/xlink" x="0px" y="0px"
	 width="612px" height="792px" viewBox="0 0 612 792" enable-background="new 0 0 612 792" xml:space="preserve">
<g>
	<polygon fill-rule="evenodd" clip-rule="evenodd" fill="#FFFFFF" points="209,300 401.756,300 401.756,492.756 209,492.756 
		209,300 	"/>
	<path fill-rule="evenodd" clip-rule="evenodd" d="M237.691,318.246c-1.945,0.69-3.451,2.069-4.391,3.826
		c-1.004,1.819-1.254,3.826-0.878,5.833c0.439,2.007,1.506,3.701,3.074,4.956c1.63,1.254,3.512,1.882,5.583,1.819
		c6.963-3.576,14.741-3.89,22.017-1.004c6.273-1.569,12.545-1.066,18.505,1.568c1.443,0.502,2.007,1.129,4.078,0
		c2.069-1.192,3.764-5.458,3.387-8.782c-0.439-3.325-2.446-6.148-5.458-7.653c-0.564-0.25-2.321-0.815-1.693-0.815
		c0.689-0.063,0-0.188,2.132-0.063c2.07,0.126,6.524,1.756,8.908,4.266c2.384,2.572,3.638,5.771,3.575,9.284
		c0,3.512-1.254,6.65-3.638,9.221c-2.384,2.572-5.52,4.015-8.97,4.266c2.822,0.377,5.207,1.694,7.087,3.89
		c-0.94,2.572-2.948,4.454-5.582,5.27c7.214,4.39,13.11,9.471,18.505,15.995c32.932,1.003,37.637,3.199,60.03-0.063
		c6.211,0.063,11.856,0.063,11.104,5.206c6.963,8.218,4.83,17.752,5.019,27.978c15.682,34.877-7.842,36.695,5.27,54.01
		c-5.333-1.004-9.473-5.459-10.1-10.916c-1.067,9.66-5.332,7.277-2.572,24.15l-2.446,0.252l-0.063,4.139h-8.72
		c9.034-28.855,3.764-34.688-0.251-42.779c0.376,1.691,0,3.449-1.129,4.893c-1.129,1.379-2.697,2.133-4.517,2.133
		c-1.757,0-3.387-0.754-4.517-2.133c-1.129-1.443-1.505-3.201-1.129-4.893c-2.383,1.441-4.076,3.637-4.768,6.334
		c-0.752,2.697-0.376,5.457,0.941,7.904l-1.255,2.949c-6.021,5.707-10.225,12.295-12.797,20.262l-1.38-0.127v5.332h-8.279
		c1.756-7.088,4.83-13.172,9.408-18.881c6.398-13.109-0.563-8.908-1.129-23.586c-2.948,1.316-5.395,3.074-7.652,5.332
		c0.627-1.693,0.313-3.512-0.815-4.83c-1.192-1.381-2.949-1.945-4.643-1.506c-5.708,0.879-10.977,1.381-16.748,1.693
		c0.815,15.871-5.269,1.131-3.575,36.822l-1.819,0.063l0.125,5.018h-8.531c4.014-11.416,2.571-31.865-0.691-41.775
		c-7.087,9.66-12.796,4.703-18.253-0.064c-0.941,7.654,0,17.25-2.384,19.133c-2.697,12.609,1.443,9.221,0,17.063l-1.255,0.125v5.145
		l-8.468,0.188c-0.376-4.078,2.259-9.033,2.447-11.479c0.189-2.51,0.189-5.207-0.125-6.713c-0.565-3.01-2.07-7.527-2.321-14.74
		c0.251-22.018-10.224-15.996-7.213-49.556c-3.074-12.797-4.078-24.903-3.199-38.075c-5.081,0.501-9.723-1.13-13.173-4.894
		l1.569-1.066l-2.071-0.564c1.066-1.381,1.882-2.76,3.262-3.826c-3.137-0.69-5.771-2.447-7.653-5.019
		c-1.881-2.634-2.697-5.646-2.321-8.907c0.314-3.199,1.694-5.959,4.078-8.155C231.544,319.5,234.429,318.308,237.691,318.246
		L237.691,318.246z M374.815,435.359c-3.136-7.15-3.136-14.93,0-22.08C377.951,420.43,377.951,428.209,374.815,435.359
		L374.815,435.359z"/>
</g>
</svg>
